<?xml version="1.0" encoding="UTF-8"?>
<svg width="43px" height="135px" viewBox="0 0 43 135" version="1.1" xmlns="http://www.w3.org/2000/svg" xmlns:xlink="http://www.w3.org/1999/xlink">
    <!-- Generator: Sketch 41.2 (35397) - http://www.bohemiancoding.com/sketch -->
    <title>elife-error-404-illustration@2x</title>
    <desc>Created with Sketch.</desc>
    <defs>
        <path d="M48,125 L48,128 L47.9925689,128 C47.9975113,128.166062 48,128.33274 48,128.5 C48,137.612698 40.6126984,145 31.5,145 C22.3873016,145 15,137.612698 15,128.5 C15,128.33274 15.0024887,128.166062 15.0074311,128 L15,128 L15,125 L48,125 Z" id="path-1"></path>
        <mask id="mask-2" maskContentUnits="userSpaceOnUse" maskUnits="objectBoundingBox" x="0" y="0" width="33" height="20" fill="white">
            <use xlink:href="#path-1"></use>
        </mask>
        <path d="M47.9925689,128 L48,128 L48,23 L53,19 L53,10 L10,10 L10,19 L15,23 L15,128 L15.0074311,128 C15.0024887,128.166062 15,128.33274 15,128.5 C15,137.612698 22.3873016,145 31.5,145 C40.6126984,145 48,137.612698 48,128.5 C48,128.33274 47.9975113,128.166062 47.9925689,128 Z" id="path-3"></path>
        <mask id="mask-4" maskContentUnits="userSpaceOnUse" maskUnits="objectBoundingBox" x="0" y="0" width="43" height="135" fill="white">
            <use xlink:href="#path-3"></use>
        </mask>
    </defs>
    <g id="desktop" stroke="none" stroke-width="1" fill="none" fill-rule="evenodd">
        <g id="Desktop-HD---error-screens" transform="translate(-233.000000, -294.000000)">
            <g id="illo-1" transform="translate(43.000000, 284.000000)">
                <g id="elife-error-404-illustration" transform="translate(180.000000, 0.000000)">
                    <rect id="crop" x="0" y="0" width="63" height="155"></rect>
                    <use id="Combined-Shape" stroke="#FFFFFF" mask="url(#mask-2)" stroke-width="14" fill="#B92B5B" xlink:href="#path-1"></use>
                    <use id="Combined-Shape" stroke-opacity="0.87" stroke="#000000" mask="url(#mask-4)" stroke-width="8" xlink:href="#path-3"></use>
                    <path d="M24,40 L24,100" id="Line" stroke-opacity="0.87" stroke="#000000" stroke-width="4" stroke-linecap="round"></path>
                    <path d="M24,107 L24,112" id="Line" stroke-opacity="0.87" stroke="#000000" stroke-width="4" stroke-linecap="round"></path>
                </g>
            </g>
        </g>
    </g>
</svg>