<?xml version="1.0" encoding="utf-8"?>
<!-- Generator: Adobe Illustrator 21.0.2, SVG Export Plug-In . SVG Version: 6.00 Build 0)  -->
<svg version="1.1" id="Layer_1" xmlns="http://www.w3.org/2000/svg" xmlns:xlink="http://www.w3.org/1999/xlink" x="0px" y="0px" width="175px" height="160px"
	 viewBox="0 0 175 160" style="enable-background:new 0 0 175 160;" xml:space="preserve">
<style type="text/css">
	.st0{fill:none;stroke:#212121;stroke-width:4;stroke-linecap:round;stroke-miterlimit:10;}
	.st1{fill:none;stroke:#212121;stroke-width:4;stroke-miterlimit:10;}
	.st2{fill:none;stroke:#CF0C4E;stroke-width:4;stroke-miterlimit:10;}
</style>
<line class="st0" x1="163" y1="47" x2="145" y2="17"/>
<line class="st0" x1="31" y1="71" x2="26" y2="63"/>
<line class="st0" x1="73" y1="139" x2="68" y2="131"/>
<polyline class="st0" points="91,101 121,101 136,76 "/>
<polyline class="st0" points="121,41 85,41 70,66 "/>
<line class="st0" x1="82" y1="96" x2="70" y2="76"/>
<polyline class="st0" points="37,131 67,131 82,106 "/>
<polyline class="st0" points="61,71 31,71 13,101 28,126 "/>
<circle class="st1" cx="67" cy="71" r="5"/>
<circle class="st2" cx="85" cy="101" r="5"/>
<circle class="st2" cx="76" cy="143" r="5"/>
<circle class="st2" cx="23" cy="59" r="5"/>
<circle class="st1" cx="31" cy="131" r="5"/>
<circle class="st1" cx="138" cy="71" r="5"/>
<circle class="st2" cx="117" cy="17" r="5"/>
</svg>
