<?xml version="1.0" encoding="utf-8"?>
<!-- Generator: Adobe Illustrator 21.0.2, SVG Export Plug-In . SVG Version: 6.00 Build 0)  -->
<svg version="1.1" id="Layer_1" xmlns="http://www.w3.org/2000/svg" xmlns:xlink="http://www.w3.org/1999/xlink" x="0px" y="0px" width="181px" height="198px"
	 viewBox="0 0 181 198" style="enable-background:new 0 0 181 198;" xml:space="preserve">
<style type="text/css">
	.st0{fill:#CF0C4E;}
	.st1{fill:none;stroke:#212121;stroke-width:4;stroke-linecap:round;stroke-miterlimit:10;}
	.st2{fill:none;stroke:#212121;stroke-width:4;stroke-miterlimit:10;}
	.st3{fill:none;stroke:#CF0C4E;stroke-width:4;stroke-linecap:round;stroke-miterlimit:10;}
</style>
<circle class="st0" cx="92" cy="110" r="5"/>
<line class="st1" x1="92" y1="130" x2="92" y2="169"/>
<line class="st1" x1="92" y1="29" x2="92" y2="90"/>
<line class="st1" x1="112" y1="110" x2="151" y2="110"/>
<line class="st1" x1="32" y1="110" x2="72" y2="110"/>
<line class="st1" x1="105.9" y1="95.6" x2="135.8" y2="65.8"/>
<line class="st1" x1="62.2" y1="139.2" x2="77.6" y2="123.9"/>
<line class="st1" x1="77.6" y1="96.1" x2="61.2" y2="79.8"/>
<line class="st1" x1="133.6" y1="152.1" x2="105.9" y2="124.4"/>
<circle class="st2" cx="92" cy="16.5" r="4.5"/>
<circle class="st2" cx="53" cy="148" r="5"/>
<circle class="st2" cx="164" cy="110" r="5"/>
<rect x="46" y="65" class="st2" width="10" height="10"/>
<rect x="87" y="176" class="st2" width="10" height="10"/>
<line class="st3" x1="18" y1="104" x2="18" y2="116"/>
<line class="st3" x1="12" y1="110" x2="24" y2="110"/>
<line class="st3" x1="142" y1="154" x2="142" y2="166"/>
<line class="st3" x1="136" y1="160" x2="148" y2="160"/>
<line class="st3" x1="144" y1="51" x2="144" y2="63"/>
<line class="st3" x1="138" y1="57" x2="150" y2="57"/>
</svg>
