<?xml version="1.0" encoding="UTF-8"?>
<svg width="270px" height="55px" viewBox="0 0 270 55" version="1.1" xmlns="http://www.w3.org/2000/svg" xmlns:xlink="http://www.w3.org/1999/xlink">
    <title>positive-planet-centered</title>
    <g id="positive-planet-centered" stroke="none" stroke-width="1" fill="none" fill-rule="evenodd">
        <g id="68747470733a2f2f696d616765732e7a656e68756275736572636f6e74656e742e636f6d2f3565633261643438663235616264346331346431366339372f31376435386635392d343638612d346563332d386136622d386466633935646232323636" transform="translate(0.400000, -0.500000)" fill="#000000" fill-rule="nonzero">
            <g id="Group" transform="translate(109.107001, 3.218496)">
                <path d="M23.7364051,47.4728102 C10.6210355,47.4728102 0,36.8517747 0,23.7364051 C0,10.6210355 10.6210355,0 23.7364051,0 C25.4261153,0 27.1962879,0.16092478 28.8055357,0.563236731 C29.8515467,0.804623901 30.5757082,1.85063497 30.3343211,2.97710843 C30.0929339,4.02311951 29.0469228,4.74728102 27.9204494,4.50589385 C26.5525887,4.18404429 25.1042657,4.02311951 23.6559427,4.02311951 C12.8739824,4.02311951 4.02311951,12.8739824 4.02311951,23.7364051 C4.02311951,34.5988277 12.8739824,43.4496907 23.7364051,43.4496907 C34.5988277,43.4496907 43.4496907,34.5988277 43.4496907,23.7364051 C43.4496907,22.6099316 44.3347769,21.7248453 45.4612504,21.7248453 C46.5877239,21.7248453 47.4728102,22.6099316 47.4728102,23.7364051 C47.4728102,36.8517747 36.8517747,47.4728102 23.7364051,47.4728102 Z" id="Path"></path>
                <path d="M22.5294692,32.587268 L12.2302833,22.2880821 C11.4256594,21.4834582 11.4256594,20.1960599 12.2302833,19.4718984 C13.0349072,18.6672745 14.3223054,18.6672745 15.0464669,19.4718984 L22.5294692,26.9549007 L44.0129274,5.47144253 C44.8175513,4.66681863 46.1049495,4.66681863 46.829111,5.47144253 C47.6337349,6.27606643 47.6337349,7.56346467 46.829111,8.28762618 L22.5294692,32.587268 Z" id="Path"></path>
            </g>
            <g id="Group" transform="translate(178.063269, 0.000000)">
                <path d="M10.7014979,11.1842722 C10.0577988,11.8279713 8.77040052,12.8739824 6.35652882,12.8739824 C2.81618365,12.8739824 -2.28687867e-14,10.5405731 -2.28687867e-14,6.59791599 C-2.28687867e-14,2.65525887 2.81618365,0.32184956 6.35652882,0.32184956 C8.85086291,0.32184956 10.2187235,1.36786063 10.5405731,1.68971019 L9.65548681,4.02311951 C9.41409964,3.70126994 8.1267014,2.73572126 6.5174536,2.73572126 C4.42543146,2.73572126 2.89664604,4.1035819 2.89664604,6.5174536 C2.89664604,8.9313253 4.58635624,10.2187235 6.5174536,10.2187235 C8.04623901,10.2187235 9.09225008,9.65548681 9.81641159,8.9313253 L10.7014979,11.1842722 Z" id="Path"></path>
                <path d="M20.1155975,8.9313253 L13.9199935,8.9313253 C14.0809183,10.2187235 14.9660046,10.7819603 16.1729404,10.7819603 C17.2994139,10.7819603 18.2649626,10.2991859 18.7477369,9.97733637 L19.8742104,11.4256594 C19.5523608,11.6670466 18.4258873,12.8739824 15.7706285,12.8739824 C13.1153696,12.8739824 11.1038098,11.1842722 11.1038098,8.36808857 C11.1038098,5.55190492 13.195832,3.86219472 15.7706285,3.86219472 C18.3454249,3.86219472 20.1155975,5.55190492 20.1155975,8.1267014 C20.1960599,8.44855096 20.1155975,8.9313253 20.1155975,8.9313253 Z M17.540801,7.3220775 C17.540801,6.5174536 16.9775643,5.55190492 15.7706285,5.55190492 C14.644155,5.55190492 14.0004559,6.43699121 14.0004559,7.3220775 L17.540801,7.3220775 Z" id="Shape"></path>
                <path d="M27.1962879,6.5174536 L27.0353631,6.5174536 C26.8744383,6.43699121 26.4721263,6.27606643 25.989352,6.27606643 C25.3456529,6.27606643 24.8628785,6.59791599 24.7019538,6.91976555 C24.4605666,7.24161511 24.2996418,7.80485184 24.2996418,8.77040052 L24.2996418,12.6325952 L21.4834582,12.6325952 L21.4834582,3.94265711 L24.2996418,3.94265711 L24.2996418,5.14959297 L24.2996418,5.14959297 C24.7824162,4.18404429 25.5065777,3.78173233 26.4721263,3.78173233 C27.0353631,3.78173233 27.3572126,3.94265711 27.3572126,3.94265711 L27.1962879,6.5174536 Z" id="Path"></path>
                <path d="M33.4723543,6.03467926 L31.5412569,6.03467926 L31.5412569,9.17271247 C31.5412569,9.89687398 31.6217193,10.0577988 31.7826441,10.2187235 C31.9435689,10.3796483 32.1044937,10.4601107 32.4263432,10.4601107 C32.8286552,10.4601107 33.2309671,10.2991859 33.2309671,10.2991859 L33.3918919,12.4716705 C33.1505047,12.5521329 32.4263432,12.7130576 31.3803321,12.7130576 C30.4147835,12.7130576 29.6906219,12.3912081 29.28831,11.9084337 C28.885998,11.4256594 28.6446109,10.7014979 28.6446109,9.33363725 L28.6446109,6.03467926 L27.437675,6.03467926 L27.437675,3.94265711 L28.6446109,3.94265711 L28.6446109,1.6092478 L31.4607945,1.6092478 L31.4607945,3.94265711 L33.3918919,3.94265711 L33.3918919,6.03467926 L33.4723543,6.03467926 Z" id="Path"></path>
                <path d="M36.0471508,2.89664604 C35.0816021,2.89664604 34.437903,2.33340931 34.437903,1.44832302 C34.437903,0.563236731 35.0816021,0 36.0471508,0 C37.0126994,0 37.6563986,0.563236731 37.6563986,1.44832302 C37.6563986,2.33340931 37.0126994,2.89664604 36.0471508,2.89664604 Z M37.4150114,12.6325952 L34.5988277,12.6325952 L34.5988277,3.94265711 L37.4150114,3.94265711 L37.4150114,12.6325952 Z" id="Shape"></path>
                <path d="M44.5761641,2.4138717 C44.5761641,2.4138717 44.0933898,2.25294692 43.6106154,2.25294692 C42.6450668,2.25294692 42.5646044,2.97710843 42.5646044,3.62080755 L42.5646044,3.94265711 L44.4152393,3.94265711 L44.4152393,6.03467926 L42.5646044,6.03467926 L42.5646044,12.5521329 L39.6679583,12.5521329 L39.6679583,6.03467926 L38.5414849,6.03467926 L38.5414849,3.94265711 L39.6679583,3.94265711 L39.6679583,3.45988277 C39.6679583,2.49433409 39.8288831,1.6092478 40.3921198,1.12647346 C40.9553566,0.563236731 41.6795181,0.24138717 42.8864539,0.24138717 C43.8520026,0.24138717 44.7370889,0.482774341 44.7370889,0.482774341 L44.5761641,2.4138717 Z M46.7486486,2.89664604 C45.7831,2.89664604 45.1394008,2.33340931 45.1394008,1.44832302 C45.1394008,0.563236731 45.7831,0 46.7486486,0 C47.7141973,0 48.3578965,0.563236731 48.3578965,1.44832302 C48.2774341,2.33340931 47.6337349,2.89664604 46.7486486,2.89664604 Z M48.1165093,12.6325952 L45.3003256,12.6325952 L45.3003256,3.94265711 L48.1165093,3.94265711 L48.1165093,12.6325952 Z" id="Shape"></path>
                <path d="M58.4961576,8.9313253 L52.3005536,8.9313253 C52.4614783,10.2187235 53.3465646,10.7819603 54.5535005,10.7819603 C55.6799739,10.7819603 56.6455226,10.2991859 57.128297,9.97733637 L58.2547704,11.4256594 C57.9329209,11.6670466 56.8064474,12.8739824 54.1511885,12.8739824 C51.4959297,12.8739824 49.4843699,11.1842722 49.4843699,8.36808857 C49.4843699,5.55190492 51.5763921,3.86219472 54.1511885,3.86219472 C56.725985,3.86219472 58.4961576,5.55190492 58.4961576,8.1267014 C58.57662,8.44855096 58.4961576,8.9313253 58.4961576,8.9313253 Z M55.9213611,7.3220775 C55.9213611,6.5174536 55.3581244,5.55190492 54.1511885,5.55190492 C53.0247151,5.55190492 52.381016,6.43699121 52.381016,7.3220775 L55.9213611,7.3220775 Z" id="Shape"></path>
                <path d="M69.0367307,12.6325952 L66.3814718,12.6325952 L66.3814718,11.5061218 L66.3010094,11.5061218 C65.6573103,12.3912081 64.6112993,12.79352 63.4848258,12.79352 C60.9904917,12.79352 59.3812439,10.7819603 59.3812439,8.28762618 C59.3812439,5.79329209 60.9904917,3.78173233 63.4848258,3.78173233 C65.0940736,3.78173233 65.9791599,4.58635624 66.2205471,4.98866819 L66.2205471,0.482774341 L69.0367307,0.482774341 L69.0367307,12.6325952 L69.0367307,12.6325952 Z M64.2089873,5.95421687 C63.0020514,5.95421687 62.1974275,6.83930316 62.1974275,8.20716379 C62.1974275,9.57502442 63.0020514,10.4601107 64.2089873,10.4601107 C65.4159232,10.4601107 66.2205471,9.57502442 66.2205471,8.20716379 C66.2205471,6.83930316 65.4963855,5.95421687 64.2089873,5.95421687 Z" id="Shape"></path>
                <path d="M17.8626506,31.7021817 C17.2189515,32.3458808 15.9315532,33.3918919 13.5176815,33.3918919 C9.97733637,33.3918919 7.16115272,31.0584826 7.16115272,27.1158255 C7.16115272,23.1731683 9.97733637,20.839759 13.5176815,20.839759 C16.0120156,20.839759 17.3798763,21.8857701 17.7017258,22.2076197 L16.8166395,24.541029 C16.5752524,24.2191794 15.2878541,23.2536307 13.6786063,23.2536307 C11.5865842,23.2536307 10.0577988,24.6214914 10.0577988,27.0353631 C10.0577988,29.4492348 11.747509,30.736633 13.6786063,30.736633 C15.2073917,30.736633 16.2534028,30.1733963 16.9775643,29.4492348 L17.8626506,31.7021817 Z" id="Path"></path>
                <path d="M26.7939759,33.1505047 L24.138717,33.1505047 L24.0582546,32.2654184 C23.6559427,32.6677304 23.0122436,33.3918919 21.5639205,33.3918919 C20.0351351,33.3918919 18.4258873,32.587268 18.4258873,30.6561706 C18.4258873,28.7250733 20.1960599,28.0813741 21.8053077,28.0009118 L23.9777923,27.9204494 L23.9777923,27.7595246 C23.9777923,26.8744383 23.3340931,26.391664 22.2076197,26.391664 C21.0811462,26.391664 19.9546727,26.8744383 19.5523608,27.1962879 L18.8281993,25.3456529 C19.5523608,24.9433409 20.9202214,24.4605666 22.5294692,24.4605666 C24.138717,24.4605666 25.1042657,24.8628785 25.7479648,25.4261153 C26.391664,26.0698144 26.7939759,26.8744383 26.7939759,28.4032237 L26.7939759,33.1505047 Z M23.9777923,29.3687724 L22.6099316,29.4492348 C21.7248453,29.4492348 21.242071,29.8515467 21.242071,30.4952458 C21.242071,31.138945 21.8053077,31.5412569 22.5294692,31.5412569 C23.2536307,31.5412569 23.8168675,31.0584826 23.9777923,30.736633 L23.9777923,29.3687724 L23.9777923,29.3687724 Z" id="Shape"></path>
                <path d="M34.1965158,27.0353631 L34.035591,27.0353631 C33.8746662,26.9549007 33.4723543,26.7939759 32.9895799,26.7939759 C32.3458808,26.7939759 31.8631065,27.1158255 31.7021817,27.437675 C31.4607945,27.7595246 31.2998697,28.3227613 31.2998697,29.28831 L31.2998697,33.1505047 L28.4836861,33.1505047 L28.4836861,24.4605666 L31.2998697,24.4605666 L31.2998697,25.6675024 L31.2998697,25.6675024 C31.7826441,24.7019538 32.5068056,24.2996418 33.4723543,24.2996418 C34.035591,24.2996418 34.3574406,24.4605666 34.3574406,24.4605666 L34.1965158,27.0353631 Z" id="Path"></path>
                <path d="M40.9553566,33.3918919 C39.7484207,33.3918919 38.7024096,32.9895799 38.0587105,32.0240313 L38.0587105,32.0240313 L38.0587105,33.1505047 L35.4034516,33.1505047 L35.4034516,21.0006838 L38.2196353,21.0006838 L38.2196353,23.8973299 C38.2196353,24.7019538 38.2196353,25.5065777 38.2196353,25.5065777 L38.3000977,25.5065777 C38.7024096,24.9433409 39.5874959,24.2996418 41.035819,24.2996418 C43.530153,24.2996418 45.1394008,26.2307392 45.1394008,28.8055357 C45.1394008,31.3803321 43.4496907,33.3918919 40.9553566,33.3918919 Z M40.1507327,26.5525887 C38.9437968,26.5525887 38.1391729,27.437675 38.1391729,28.8055357 C38.1391729,30.1733963 38.9437968,31.0584826 40.1507327,31.0584826 C41.3576685,31.0584826 42.1622924,30.1733963 42.1622924,28.8055357 C42.1622924,27.437675 41.3576685,26.5525887 40.1507327,26.5525887 Z" id="Shape"></path>
                <path d="M50.6913058,33.3918919 C47.9555845,33.3918919 45.8635624,31.7021817 45.8635624,28.885998 C45.8635624,26.0698144 47.9555845,24.3801042 50.6913058,24.3801042 C53.427027,24.3801042 55.5190492,26.0698144 55.5190492,28.885998 C55.5190492,31.6217193 53.5074894,33.3918919 50.6913058,33.3918919 Z M50.6913058,26.5525887 C49.4039075,26.5525887 48.679746,27.5181374 48.679746,28.8055357 C48.679746,30.0929339 49.4039075,31.0584826 50.6913058,31.0584826 C51.8982416,31.0584826 52.7028655,30.0929339 52.7028655,28.8055357 C52.7028655,27.5181374 51.978704,26.5525887 50.6913058,26.5525887 Z" id="Shape"></path>
                <path d="M65.4159232,33.1505047 L62.5997395,33.1505047 L62.5997395,28.6446109 C62.5997395,27.5181374 62.4388147,26.6330511 61.2318789,26.6330511 C60.024943,26.6330511 59.7030935,27.5985998 59.7030935,28.885998 L59.7030935,33.1505047 L56.8869098,33.1505047 L56.8869098,24.4605666 L59.7030935,24.4605666 L59.7030935,25.7479648 L59.7030935,25.7479648 C60.1858678,24.9433409 60.9904917,24.2996418 62.1974275,24.2996418 C64.6917616,24.2996418 65.3354608,25.9088896 65.3354608,28.0009118 L65.3354608,33.1505047 L65.4159232,33.1505047 Z" id="Path"></path>
                <path d="M18.4258873,53.7488766 L15.5292413,53.7488766 L10.1382612,45.4612504 C10.1382612,45.4612504 10.2187235,46.9095734 10.2187235,48.1969717 L10.2187235,53.6684142 L7.40253989,53.6684142 L7.40253989,41.5990557 L10.4601107,41.5990557 L15.6901661,49.8062195 C15.6901661,49.8062195 15.6097037,48.4383588 15.6097037,47.1509606 L15.6097037,41.6795181 L18.4258873,41.6795181 L18.4258873,53.7488766 Z" id="Path"></path>
                <path d="M28.885998,50.0476066 L22.7708564,50.0476066 C22.9317812,51.3350049 23.8168675,51.8982416 25.0238033,51.8982416 C26.1502768,51.8982416 27.1158255,51.4154673 27.5985998,51.0936177 L28.7250733,52.5419407 C28.4032237,52.7833279 27.2767502,53.9902638 24.6214914,53.9902638 C21.9662325,53.9902638 19.9546727,52.3005536 19.9546727,49.4843699 C19.9546727,46.6681863 22.0466949,44.9784761 24.6214914,44.9784761 C27.1962879,44.9784761 28.9664604,46.6681863 28.9664604,49.2429827 C28.9664604,49.5648323 28.885998,50.0476066 28.885998,50.0476066 Z M26.3112016,48.4383588 C26.3112016,47.6337349 25.7479648,46.6681863 24.541029,46.6681863 C23.4145555,46.6681863 22.7708564,47.5532725 22.7708564,48.4383588 L26.3112016,48.4383588 Z" id="Shape"></path>
                <path d="M38.6219472,53.7488766 L35.886226,53.7488766 L35.886226,52.7833279 C35.483914,53.3465646 34.5988277,53.9902638 33.3114295,53.9902638 C32.0240313,53.9902638 31.2998697,53.5879518 30.8170954,52.9442527 C30.4147835,52.381016 30.1733963,51.5763921 30.1733963,50.3694562 L30.1733963,45.1394008 L32.9895799,45.1394008 L32.9895799,49.9671443 C32.9895799,50.9326929 33.3114295,51.6568544 34.2769782,51.6568544 C35.2425269,51.6568544 35.7253012,50.8522305 35.7253012,49.7257571 L35.7253012,45.1394008 L38.5414849,45.1394008 L38.5414849,53.7488766 L38.6219472,53.7488766 Z" id="Path"></path>
                <path d="M45.6221752,47.231423 L43.6910778,47.231423 L43.6910778,50.2889938 C43.6910778,51.0131553 43.7715402,51.1740801 43.932465,51.3350049 C44.0933898,51.4959297 44.2543146,51.5763921 44.5761641,51.5763921 C44.9784761,51.5763921 45.380788,51.4154673 45.380788,51.4154673 L45.5417128,53.5879518 C45.3003256,53.6684142 44.5761641,53.829339 43.530153,53.829339 C42.5646044,53.829339 41.8404429,53.5074894 41.4381309,53.0247151 C41.035819,52.5419407 40.7944318,51.8177792 40.7944318,50.4499186 L40.7944318,47.0704982 L39.6679583,47.0704982 L39.6679583,44.9784761 L40.8748942,44.9784761 L40.8748942,42.6450668 L43.6910778,42.6450668 L43.6910778,44.9784761 L45.6221752,44.9784761 L45.6221752,47.231423 Z" id="Path"></path>
                <path d="M52.4614783,47.6337349 L52.3005536,47.6337349 C52.1396288,47.5532725 51.7373168,47.3923478 51.2545425,47.3923478 C50.6108434,47.3923478 50.128069,47.7141973 49.9671443,48.0360469 C49.7257571,48.3578965 49.5648323,48.9211332 49.5648323,49.8866819 L49.5648323,53.7488766 L46.7486486,53.7488766 L46.7486486,45.0589385 L49.5648323,45.0589385 L49.5648323,46.2658743 L49.5648323,46.2658743 C50.0476066,45.3003256 50.7717682,44.8980137 51.7373168,44.8980137 C52.3005536,44.8980137 52.6224031,45.0589385 52.6224031,45.0589385 L52.4614783,47.6337349 Z" id="Path"></path>
                <path d="M60.9904917,53.7488766 L58.3352328,53.7488766 L58.2547704,52.8637903 C57.8524585,53.2661022 57.2087594,53.9902638 55.7604363,53.9902638 C54.2316509,53.9902638 52.6224031,53.1856399 52.6224031,51.2545425 C52.6224031,49.3234451 54.3925757,48.679746 56.0018235,48.5992836 L58.174308,48.5188212 L58.174308,48.3578965 C58.174308,47.4728102 57.5306089,46.9900358 56.4041355,46.9900358 C55.277662,46.9900358 54.1511885,47.4728102 53.7488766,47.7946597 L53.0247151,45.9440247 C53.7488766,45.5417128 55.1167372,45.0589385 56.725985,45.0589385 C58.3352328,45.0589385 59.3007815,45.4612504 59.9444806,46.0244871 C60.5881797,46.6681863 60.9904917,47.4728102 60.9904917,49.0015956 L60.9904917,53.7488766 Z M58.174308,49.8866819 L56.8064474,49.9671443 C55.9213611,49.9671443 55.4385868,50.3694562 55.4385868,51.0131553 C55.4385868,51.6568544 56.0018235,52.0591664 56.725985,52.0591664 C57.4501465,52.0591664 58.0133833,51.5763921 58.174308,51.2545425 L58.174308,49.8866819 L58.174308,49.8866819 Z" id="Shape"></path>
                <polygon id="Path" points="65.6573103 53.7488766 62.8411267 53.7488766 62.8411267 41.5990557 65.6573103 41.5990557"></polygon>
            </g>
            <g id="Group" transform="translate(0.000000, 9.494562)">
                <path d="M22.8513188,19.9546727 C23.9777923,19.9546727 25.1042657,19.9546727 26.2307392,19.9546727 C26.2307392,20.2765223 26.2307392,20.5179095 26.2307392,20.839759 C26.3112016,20.839759 26.391664,20.839759 26.391664,20.839759 C27.7595246,19.391436 30.736633,19.1500488 32.6677304,20.6788343 C34.5988277,22.1271573 35.3229893,24.2191794 34.9206773,26.5525887 C34.5988277,28.7250733 33.4723543,30.3343211 31.3803321,31.0584826 C29.5296972,31.7021817 27.839987,31.4607945 26.2307392,30.0929339 C26.2307392,31.8631065 26.2307392,33.6332791 26.2307392,35.483914 C25.0238033,35.483914 23.9777923,35.483914 22.8513188,35.483914 C22.8513188,30.2538587 22.8513188,25.1042657 22.8513188,19.9546727 Z M26.2307392,25.4261153 C26.2307392,27.0353631 27.2767502,28.1618365 28.885998,28.1618365 C30.4952458,28.1618365 31.5412569,27.1158255 31.5412569,25.5065777 C31.5412569,23.8973299 30.4952458,22.7708564 28.885998,22.7708564 C27.3572126,22.7708564 26.2307392,23.8168675 26.2307392,25.4261153 Z" id="Shape"></path>
                <path d="M3.37942038,15.1269293 C3.37942038,16.8971019 3.37942038,18.6672745 3.37942038,20.4374471 C2.25294692,20.4374471 1.12647346,20.4374471 0,20.4374471 C0,15.2878541 0,10.1382612 0,4.98866819 C1.12647346,4.98866819 2.25294692,4.98866819 3.37942038,4.98866819 C3.37942038,5.23005536 3.37942038,5.55190492 3.37942038,5.87375448 C3.45988277,5.87375448 3.54034516,5.87375448 3.54034516,5.87375448 C5.55190492,4.26450668 8.20716379,4.26450668 10.1382612,5.87375448 C13.4372191,8.60947574 12.7130576,14.3223054 8.85086291,15.9315532 C7.00022794,16.7361771 5.14959297,16.5752524 3.62080755,15.2073917 C3.45988277,15.2073917 3.45988277,15.2073917 3.37942038,15.1269293 Z M6.03467926,13.195832 C7.64392706,13.195832 8.68993813,12.0693585 8.68993813,10.4601107 C8.68993813,8.85086291 7.56346467,7.80485184 6.03467926,7.80485184 C4.42543146,7.80485184 3.29895799,8.9313253 3.29895799,10.5405731 C3.37942038,12.1498209 4.42543146,13.2762944 6.03467926,13.195832 Z" id="Shape"></path>
                <path d="M49.0015956,20.839759 C49.0015956,20.5179095 49.0015956,20.1960599 49.0015956,19.9546727 C50.128069,19.9546727 51.2545425,19.9546727 52.381016,19.9546727 C52.381016,23.6559427 52.381016,27.2767502 52.381016,30.9780202 C51.2545425,30.9780202 50.128069,30.9780202 49.0015956,30.9780202 C49.0015956,30.6561706 49.0015956,30.4147835 49.0015956,30.0929339 C48.9211332,30.0929339 48.9211332,30.0929339 48.8406708,30.0929339 C46.829111,31.7021817 44.0933898,31.7021817 42.1622924,30.0124715 C38.9437968,27.2767502 39.6679583,21.7248453 43.4496907,20.0351351 C45.3003256,19.2305112 47.0704982,19.4718984 49.0015956,20.839759 Z M46.2658743,28.1618365 C47.8751221,28.1618365 49.0015956,27.0353631 49.0015956,25.4261153 C49.0015956,23.8168675 47.8751221,22.7708564 46.3463367,22.690394 C44.7370889,22.690394 43.6106154,23.7364051 43.6106154,25.3456529 C43.6106154,27.1158255 44.6566265,28.1618365 46.2658743,28.1618365 Z" id="Shape"></path>
                <path d="M68.7148811,11.9084337 C69.1171931,12.8739824 69.8413546,13.2762944 70.7264409,13.4372191 C71.6919896,13.5981439 72.6575383,13.4372191 73.4621622,12.79352 C73.5426246,12.7130576 73.7035493,12.7130576 73.7840117,12.79352 C74.5886356,13.2762944 75.3932595,13.6786063 76.2783458,14.1613807 C76.1978834,14.241843 76.1978834,14.3223054 76.117421,14.4027678 C74.7495604,16.0120156 72.9793878,16.49479 70.9678281,16.4143276 C70.0022794,16.4143276 69.1171931,16.1729404 68.2321068,15.7706285 C65.9791599,14.7246174 64.6917616,12.2302833 65.0940736,9.7359492 C65.4963855,7.08069033 67.3470205,5.14959297 69.921817,4.82774341 C71.8529144,4.50589385 73.7035493,4.9082058 75.1518724,6.35652882 C76.6001954,7.80485184 77.0025073,9.49456203 76.8415825,11.5061218 C76.8415825,11.8279713 76.6806578,11.9888961 76.2783458,11.9888961 C73.9449365,11.9888961 71.5310648,11.9888961 69.1976555,11.9888961 C69.0367307,11.9084337 68.9562683,11.9084337 68.7148811,11.9084337 Z M73.4621622,9.33363725 C73.3012374,8.28762618 72.3356887,7.64392706 71.1287528,7.64392706 C69.8413546,7.64392706 68.8758059,8.28762618 68.7148811,9.33363725 C70.2436666,9.33363725 71.8529144,9.33363725 73.4621622,9.33363725 Z" id="Shape"></path>
                <path d="M77.0829697,26.7939759 C75.7151091,26.7939759 74.3472485,26.7939759 73.0598502,26.7939759 C71.772452,26.7939759 70.4045913,26.7939759 69.0367307,26.7939759 C69.2781179,27.437675 69.6804298,27.9204494 70.3241289,28.0813741 C71.5310648,28.4836861 72.6575383,28.4836861 73.7840117,27.6790622 C73.8644741,27.5985998 74.1058613,27.5985998 74.1863237,27.6790622 C74.9909476,28.1618365 75.7955715,28.5641485 76.6806578,29.0469228 C76.6001954,29.1273852 76.6001954,29.2078476 76.519733,29.28831 C75.1518724,30.8975578 73.3816998,31.3803321 71.37014,31.2998697 C70.4045913,31.2998697 69.519505,31.0584826 68.6344188,30.6561706 C66.3814718,29.6101596 65.0940736,27.1158255 65.4963855,24.541029 C65.8986975,21.8857701 67.8297949,19.9546727 70.4045913,19.6328232 C72.8989254,19.3109736 74.9104852,20.0351351 76.3588082,22.2076197 C77.2438945,23.5754803 77.4048193,25.1847281 77.0829697,26.7939759 Z M69.0367307,24.2996418 C70.6459785,24.2996418 72.2552263,24.2996418 73.7840117,24.2996418 C73.5426246,23.1731683 72.6575383,22.6099316 71.37014,22.6099316 C70.0827418,22.6099316 69.1976555,23.2536307 69.0367307,24.2996418 Z" id="Shape"></path>
                <path d="M18.9086617,16.4143276 C15.5292413,16.4143276 12.8739824,13.8395311 12.8739824,10.5405731 C12.8739824,7.24161511 15.5292413,4.66681863 18.9086617,4.66681863 C22.2880821,4.66681863 24.9433409,7.24161511 24.9433409,10.5405731 C24.9433409,13.8395311 22.2880821,16.4143276 18.9086617,16.4143276 Z M18.9086617,13.1153696 C20.4374471,13.1153696 21.4834582,12.0693585 21.4834582,10.5405731 C21.4834582,9.01178769 20.3569847,7.88531423 18.9086617,7.88531423 C17.3798763,7.88531423 16.3338652,9.01178769 16.3338652,10.5405731 C16.3338652,12.0693585 17.3798763,13.1153696 18.9086617,13.1153696 Z" id="Shape"></path>
                <path d="M64.6917616,30.9780202 C63.5652882,30.9780202 62.4388147,30.9780202 61.3123413,30.9780202 C61.3123413,30.8170954 61.3123413,30.6561706 61.3123413,30.4952458 C61.3123413,28.6446109 61.3123413,26.7939759 61.3123413,24.9433409 C61.3123413,24.7019538 61.3123413,24.3801042 61.2318789,24.138717 C61.0709541,23.1731683 60.3467926,22.6099316 59.3007815,22.690394 C58.2547704,22.690394 57.5306089,23.2536307 57.2892218,24.2996418 C57.2087594,24.6214914 57.2087594,24.9433409 57.2087594,25.2651905 C57.2087594,27.0353631 57.2087594,28.8055357 57.2087594,30.5757082 C57.2087594,30.736633 57.2087594,30.8975578 57.2087594,31.0584826 C56.0822859,31.0584826 54.9558124,31.0584826 53.829339,31.0584826 C53.829339,27.3572126 53.829339,23.7364051 53.829339,20.0351351 C54.9558124,20.0351351 56.0018235,20.0351351 57.2087594,20.0351351 C57.2087594,20.2765223 57.2087594,20.5983719 57.2087594,20.839759 C57.2892218,20.839759 57.2892218,20.839759 57.2892218,20.839759 C58.4961576,19.7132856 59.8640182,19.4718984 61.3928036,19.7132856 C63.1629762,20.0351351 64.5308369,21.5639205 64.6112993,23.5754803 C64.6917616,25.1847281 64.6112993,26.7939759 64.6917616,28.4032237 C64.6917616,29.2078476 64.6917616,30.0929339 64.6917616,30.9780202 Z" id="Path"></path>
                <path d="M25.2651905,13.7590687 C26.2307392,13.195832 27.1962879,12.7130576 28.1618365,12.1498209 C28.5641485,13.2762944 29.4492348,13.5981439 30.5757082,13.4372191 C30.736633,13.4372191 30.9780202,13.3567568 31.138945,13.2762944 C31.4607945,13.0349072 31.4607945,12.6325952 31.138945,12.4716705 C30.8170954,12.3107457 30.4952458,12.1498209 30.1733963,12.0693585 C29.4492348,11.8279713 28.6446109,11.5865842 27.9204494,11.345197 C26.7135135,10.8624227 25.9088896,9.97733637 25.8284272,8.52901335 C25.8284272,7.08069033 26.4721263,5.95421687 27.7595246,5.31051775 C30.0929339,4.1035819 33.1505047,4.82774341 34.5183654,6.91976555 C34.5183654,7.00022794 34.5988277,7.00022794 34.6792901,7.16115272 C33.7137415,7.64392706 32.7481928,8.20716379 31.7826441,8.68993813 C31.3803321,7.96577662 30.8170954,7.64392706 30.0124715,7.72438945 C29.8515467,7.72438945 29.6906219,7.80485184 29.6101596,7.88531423 C29.28831,8.1267014 29.28831,8.52901335 29.6101596,8.68993813 C29.9320091,8.85086291 30.2538587,8.9313253 30.5757082,9.09225008 C31.3803321,9.33363725 32.2654184,9.57502442 32.9895799,9.89687398 C34.9206773,10.7819603 35.2425269,12.5521329 34.7597525,14.0809183 C34.437903,15.0464669 33.7942038,15.6097037 32.9091176,16.0120156 C31.0584826,16.8166395 29.2078476,16.7361771 27.3572126,16.0120156 C26.3112016,15.4487789 25.5065777,14.5636926 25.2651905,13.7590687 Z" id="Path"></path>
                <path d="M53.2661022,4.98866819 C54.4730381,4.98866819 55.5995116,4.98866819 56.8064474,4.98866819 C56.8869098,4.98866819 57.0478346,5.23005536 57.128297,5.31051775 C57.8524585,7.40253989 58.4961576,9.41409964 59.2203191,11.5061218 C59.2203191,11.5865842 59.3007815,11.747509 59.3812439,11.9084337 C59.4617063,11.5865842 59.5421687,11.345197 59.6226311,11.1842722 C60.2663302,9.25317486 60.9100293,7.24161511 61.5537284,5.31051775 C61.6341908,5.06913058 61.7951156,4.98866819 62.0365028,4.98866819 C63.0020514,4.98866819 64.0480625,4.98866819 65.0136112,4.98866819 C65.0940736,4.98866819 65.2549984,4.98866819 65.4159232,4.98866819 C65.174536,5.55190492 65.0136112,6.03467926 64.8526864,6.59791599 C63.726213,9.65548681 62.5192771,12.6325952 61.3928036,15.6901661 C61.2318789,16.0120156 61.1514165,16.092478 60.7491045,16.092478 C59.7030935,16.092478 58.6570824,16.092478 57.6110713,16.092478 C57.3696841,16.092478 57.2892218,16.092478 57.2087594,15.8510908 C55.8408987,12.2302833 54.4730381,8.68993813 53.1856399,5.06913058 C53.2661022,5.06913058 53.2661022,5.06913058 53.2661022,4.98866819 Z" id="Path"></path>
                <path d="M78.6117551,23.092706 C77.968056,23.092706 77.4048193,23.092706 76.8415825,23.092706 C76.8415825,22.0466949 76.8415825,21.0006838 76.8415825,19.8742104 C77.4048193,19.8742104 77.968056,19.8742104 78.6117551,19.8742104 C78.6117551,19.3109736 78.6117551,18.7477369 78.6117551,18.1845002 C78.6117551,17.8626506 78.6922175,17.7017258 79.0140671,17.6212634 C79.9796158,17.3798763 80.9451644,17.0580267 81.9911755,16.7361771 C81.9911755,17.7821882 81.9911755,18.8281993 81.9911755,19.8742104 C82.7957994,19.8742104 83.5199609,19.8742104 84.3245848,19.8742104 C84.3245848,20.9202214 84.3245848,21.9662325 84.3245848,23.092706 C83.6004233,23.092706 82.7957994,23.092706 82.0716379,23.092706 C82.0716379,23.2536307 82.0716379,23.3340931 82.0716379,23.4950179 C82.0716379,24.6214914 82.0716379,25.8284272 82.0716379,26.9549007 C82.0716379,27.5985998 82.3130251,27.9204494 83.0371866,28.0009118 C83.2785738,28.0009118 83.5199609,28.0009118 83.7613481,28.0813741 C84.0027353,28.0813741 84.16366,28.0813741 84.4050472,28.0813741 C84.4050472,29.0469228 84.4050472,30.0929339 84.4050472,31.0584826 C83.1981114,31.2194074 81.9107131,31.2194074 80.7842397,30.8975578 C79.416379,30.4147835 78.8531423,29.3687724 78.7726799,28.0813741 C78.6922175,26.6330511 78.6922175,25.1847281 78.6922175,23.7364051 C78.6117551,23.4950179 78.6117551,23.3340931 78.6117551,23.092706 Z" id="Path"></path>
                <path d="M42.08183,8.20716379 C41.4381309,8.20716379 40.8748942,8.20716379 40.3116574,8.20716379 C40.3116574,7.16115272 40.3116574,6.11514165 40.3116574,4.98866819 C40.8748942,4.98866819 41.4381309,4.98866819 42.08183,4.98866819 C42.08183,4.26450668 42.08183,3.54034516 42.08183,2.89664604 C43.2083035,2.57479648 44.3347769,2.25294692 45.4612504,1.93109736 C45.4612504,2.97710843 45.4612504,3.94265711 45.4612504,4.98866819 C46.2658743,4.98866819 46.9900358,4.98866819 47.7946597,4.98866819 C47.7946597,6.11514165 47.7946597,7.08069033 47.7946597,8.20716379 C46.9900358,8.20716379 46.2658743,8.20716379 45.4612504,8.20716379 C45.4612504,9.57502442 45.4612504,10.9428851 45.4612504,12.2302833 C45.4612504,12.7130576 45.7831,12.9544448 46.3463367,13.0349072 C46.5877239,13.0349072 46.829111,13.1153696 47.0704982,13.1153696 C47.3118854,13.1153696 47.5532725,13.1153696 47.7946597,13.1153696 C47.7946597,14.0809183 47.7946597,15.1269293 47.7946597,16.092478 C46.5072615,16.2534028 45.1394008,16.3338652 43.932465,15.7706285 C42.8059915,15.3683165 42.3232172,14.4027678 42.1622924,13.2762944 C42.08183,12.3912081 42.08183,11.5061218 42.08183,10.6210355 C42.08183,9.89687398 42.08183,9.09225008 42.08183,8.20716379 Z" id="Path"></path>
                <path d="M39.2656464,30.9780202 C38.1391729,30.9780202 37.0126994,30.9780202 35.886226,30.9780202 C35.886226,26.4721263 35.886226,21.9662325 35.886226,17.4603387 C37.0126994,17.4603387 38.1391729,17.4603387 39.2656464,17.4603387 C39.2656464,21.9662325 39.2656464,26.4721263 39.2656464,30.9780202 Z" id="Path"></path>
                <path d="M39.2656464,16.092478 C38.1391729,16.092478 37.0126994,16.092478 35.886226,16.092478 C35.886226,12.3912081 35.886226,8.68993813 35.886226,4.98866819 C37.0126994,4.98866819 38.1391729,4.98866819 39.2656464,4.98866819 C39.2656464,8.68993813 39.2656464,12.3912081 39.2656464,16.092478 Z" id="Path"></path>
                <path d="M52.5419407,16.092478 C51.4154673,16.092478 50.2889938,16.092478 49.1625204,16.092478 C49.1625204,12.3912081 49.1625204,8.77040052 49.1625204,4.98866819 C50.2889938,4.98866819 51.4154673,4.98866819 52.5419407,4.98866819 C52.5419407,8.68993813 52.5419407,12.3912081 52.5419407,16.092478 Z" id="Path"></path>
                <path d="M37.6563986,0 C38.782872,0 39.6679583,0.965548681 39.6679583,2.01155975 C39.6679583,3.13803321 38.7024096,4.02311951 37.5759362,4.02311951 C36.4494627,4.02311951 35.5643764,3.05757082 35.5643764,2.01155975 C35.5643764,0.885086291 36.5299251,0 37.6563986,0 Z" id="Path"></path>
                <path d="M50.8522305,0 C51.978704,0 52.8637903,0.885086291 52.8637903,2.01155975 C52.8637903,3.13803321 51.8982416,4.02311951 50.7717682,4.02311951 C49.6452947,4.02311951 48.7602084,3.13803321 48.7602084,2.01155975 C48.8406708,0.885086291 49.7257571,0 50.8522305,0 Z" id="Path"></path>
                <path d="M90.6006513,16.2534028 C90.6006513,16.7361771 90.6006513,17.2189515 90.6006513,17.7017258 C90.6006513,17.7821882 90.4397265,17.8626506 90.3592641,17.943113 C90.3592641,17.943113 90.2788017,17.8626506 90.2788017,17.8626506 C90.2788017,17.6212634 90.2788017,17.2994139 90.2788017,17.0580267 C90.2788017,17.0580267 90.1983393,17.0580267 90.1983393,17.0580267 C90.0374145,17.2189515 89.9569521,17.4603387 89.7960274,17.6212634 C89.6351026,17.3798763 89.5546402,17.2189515 89.313253,16.9775643 C89.313253,17.2994139 89.313253,17.6212634 89.313253,17.8626506 C89.0718658,18.0235754 88.9109411,17.943113 88.9109411,17.6212634 C88.9109411,17.1384891 88.9109411,16.6557148 88.9109411,16.1729404 C89.5546402,16.0120156 89.4741778,16.6557148 89.7960274,16.8166395 C90.0374145,16.7361771 89.9569521,16.092478 90.6006513,16.2534028 Z" id="Path"></path>
                <path d="M88.2672419,17.8626506 C87.9453924,17.943113 87.7844676,17.8626506 87.86493,17.540801 C87.86493,17.2189515 87.86493,16.8971019 87.86493,16.5752524 C87.7040052,16.49479 87.2212309,16.5752524 87.462618,16.1729404 C87.86493,16.1729404 88.2672419,16.1729404 88.6695539,16.1729404 C88.7500163,16.49479 88.7500163,16.49479 88.2672419,16.5752524 C88.2672419,17.0580267 88.2672419,17.4603387 88.2672419,17.8626506 Z" id="Path"></path>
            </g>
        </g>
    </g>
</svg>