<svg width="553" height="530" viewBox="0 0 553 530" fill="none" xmlns="http://www.w3.org/2000/svg">
<g clip-path="url(#clip0_932_7257)">
<path fill-rule="evenodd" clip-rule="evenodd" d="M515.97 282.296C527.116 293.441 527.116 311.512 515.97 322.657L356.027 482.6C344.881 493.746 326.811 493.746 315.665 482.6C304.52 471.455 304.52 453.384 315.665 442.239L475.608 282.296C486.754 271.15 504.824 271.15 515.97 282.296Z" fill="#F25720"/>
<path fill-rule="evenodd" clip-rule="evenodd" d="M544.507 254.004C555.653 265.149 555.653 283.22 544.507 294.366L455.914 382.959C444.769 394.104 426.698 394.104 415.552 382.959C404.407 371.813 404.407 353.743 415.552 342.597L504.145 254.004C515.291 242.858 533.362 242.858 544.507 254.004Z" fill="#F29524"/>
<path fill-rule="evenodd" clip-rule="evenodd" d="M544.118 139.417C555.264 150.562 555.264 168.633 544.118 179.778L455.525 268.371C444.38 279.517 426.309 279.517 415.164 268.371C404.018 257.226 404.018 239.155 415.164 228.01L503.757 139.417C514.902 128.271 532.973 128.271 544.118 139.417Z" fill="#D71D62"/>
<path fill-rule="evenodd" clip-rule="evenodd" d="M436.702 18.7375C447.848 29.8831 447.848 47.9536 436.702 59.0992L176.869 318.933C165.723 330.078 147.652 330.078 136.507 318.933C125.361 307.787 125.361 289.716 136.507 278.571L396.34 18.7375C407.486 7.5919 425.556 7.5919 436.702 18.7375Z" fill="#2994D2"/>
<path fill-rule="evenodd" clip-rule="evenodd" d="M428.971 140.033C440.117 151.179 440.117 169.249 428.971 180.395L179.246 430.12C168.101 441.266 150.03 441.266 138.884 430.12C127.739 418.975 127.739 400.904 138.884 389.758L388.61 140.033C399.755 128.887 417.826 128.887 428.971 140.033Z" fill="#6EBF23"/>
<path fill-rule="evenodd" clip-rule="evenodd" d="M341.532 341.633C352.677 352.778 352.677 370.849 341.532 381.994L166.129 557.397C154.984 568.542 136.913 568.542 125.767 557.397C114.622 546.251 114.622 528.181 125.767 517.035L301.17 341.633C312.315 330.487 330.386 330.487 341.532 341.633Z" fill="#861450"/>
<path fill-rule="evenodd" clip-rule="evenodd" d="M543.128 368.353C554.274 379.499 554.274 397.57 543.128 408.715L371.293 580.55C360.148 591.696 342.077 591.696 330.932 580.55C319.786 569.404 319.786 551.334 330.932 540.188L502.767 368.353C513.912 357.208 531.983 357.208 543.128 368.353Z" fill="#42AEA4"/>
<path d="M37.1763 388.534C37.1763 372.772 49.9541 359.994 65.7163 359.994C81.4785 359.994 94.2564 372.772 94.2564 388.534C94.2563 404.296 81.4785 417.074 65.7163 417.074C49.9541 417.074 37.1763 404.296 37.1763 388.534Z" fill="#083D87"/>
<path d="M349.889 304.734C349.889 288.971 362.666 276.193 378.429 276.193C394.191 276.193 406.969 288.971 406.969 304.734C406.969 320.496 394.191 333.274 378.429 333.274C362.666 333.274 349.889 320.496 349.889 304.734Z" fill="#D71D62"/>
<path d="M380.248 160.214C380.248 144.452 393.026 131.674 408.788 131.674C424.55 131.674 437.328 144.452 437.328 160.214C437.328 175.976 424.55 188.754 408.788 188.754C393.026 188.754 380.248 175.976 380.248 160.214Z" fill="#336A2D"/>
<path d="M465.868 417.074C465.868 401.312 478.646 388.534 494.408 388.534C510.17 388.534 522.948 401.312 522.948 417.074C522.948 432.836 510.17 445.614 494.408 445.614C478.646 445.614 465.868 432.836 465.868 417.074Z" fill="#207B74"/>
<path fill-rule="evenodd" clip-rule="evenodd" d="M250.592 318.408C261.738 329.554 261.738 347.624 250.592 358.77L-7.45745 616.82C-18.603 627.965 -36.6736 627.965 -47.8192 616.82C-58.9647 605.674 -58.9647 587.603 -47.8192 576.458L210.23 318.408C221.376 307.263 239.447 307.263 250.592 318.408Z" fill="#336A2D"/>
<path fill-rule="evenodd" clip-rule="evenodd" d="M283.889 171.546C295.035 182.692 295.035 200.762 283.889 211.908L144.162 351.635C133.017 362.781 114.946 362.781 103.8 351.635C92.6549 340.489 92.6549 322.419 103.8 311.273L243.528 171.546C254.673 160.4 272.744 160.4 283.889 171.546Z" fill="#083D87"/>
<path d="M495.928 159.161C495.928 143.398 508.706 130.62 524.468 130.62C540.23 130.62 553.008 143.398 553.008 159.161C553.008 174.923 540.23 187.701 524.468 187.701C508.706 187.701 495.928 174.923 495.928 159.161Z" fill="#861450"/>
</g>
<defs>
<clipPath id="clip0_932_7257">
<rect width="553" height="530" fill="white"/>
</clipPath>
</defs>
</svg>