<?xml version="1.0" encoding="UTF-8"?>
<svg width="24px" height="24px" viewBox="0 0 24 24" version="1.1" xmlns="http://www.w3.org/2000/svg" xmlns:xlink="http://www.w3.org/1999/xlink">
    <title>icons/search-blue</title>
    <g id="icons/search-blue" stroke="none" stroke-width="1" fill="none" fill-rule="evenodd">
        <path d="M15.5,14 L14.7,14 L14.4,13.7 C15.4,12.6 16,11.1 16,9.5 C16,5.9 13.1,3 9.5,3 C5.9,3 3,5.9 3,9.5 C3,13.1 5.9,16 9.5,16 C11.1,16 12.6,15.4 13.7,14.4 L14,14.7 L14,15.5 L19,20.5 L20.5,19 L15.5,14 L15.5,14 Z M9.5,14 C7,14 5,12 5,9.5 C5,7 7,5 9.5,5 C12,5 14,7 14,9.5 C14,12 12,14 9.5,14 L9.5,14 Z" id="Shape" fill="#087ACC"></path>
    </g>
</svg>