<?xml version="1.0" encoding="UTF-8"?>
<svg width="17px" height="18px" viewBox="0 0 17 18" version="1.1" xmlns="http://www.w3.org/2000/svg" xmlns:xlink="http://www.w3.org/1999/xlink">
    <!-- Generator: Sketch 44.1 (41455) - http://www.bohemiancoding.com/sketch -->
    <title>cc-hover</title>
    <desc>Created with Sketch.</desc>
    <defs></defs>
    <g id="desktop" stroke="none" stroke-width="1" fill="none" fill-rule="evenodd">
        <g id="Desktop-HD---code-block" transform="translate(-161.000000, -134.000000)" fill-rule="nonzero" fill="#888888">
            <g id="page" transform="translate(-5.000000, -2.000000)">
                <g id="header" transform="translate(166.000000, 111.000000)">
                    <g id="cc-by">
                        <g id="cc-hover" transform="translate(0.000000, 25.350000)">
                            <path d="M8.48456923,0.130769231 C10.8256,0.130769231 12.8187846,0.948076923 14.4625538,2.58190769 C15.2492615,3.36887692 15.8474,4.26830769 16.2559231,5.27941538 C16.6641846,6.29078462 16.8689692,7.36413846 16.8689692,8.5 C16.8689692,9.6458 16.6668,10.7194154 16.2637692,11.7203231 C15.8602154,12.7214923 15.2646923,13.6060154 14.4779846,14.3731077 C13.6612,15.1799538 12.7345692,15.7979692 11.6980923,16.2263692 C10.6621385,16.6547692 9.59087692,16.8689692 8.48509231,16.8689692 C7.37930769,16.8689692 6.3206,16.6576462 5.30923077,16.2336923 C4.29812308,15.8105231 3.39136923,15.1977385 2.58923077,14.3958615 C1.78709231,13.5939846 1.17692308,12.6895846 0.758461538,11.6831846 C0.34,10.6767846 0.130769231,9.61598462 0.130769231,8.5 C0.130769231,7.39395385 0.342353846,6.33053846 0.765784615,5.30923077 C1.18921538,4.28792308 1.80461538,3.37384615 2.61146154,2.56673846 C4.20553846,0.943107692 6.16315385,0.130769231 8.48456923,0.130769231 Z M8.51490769,1.64036923 C6.60201538,1.64036923 4.99276923,2.30807692 3.68743077,3.64296923 C3.02966154,4.31067692 2.52410769,5.06024615 2.17050769,5.8922 C1.81638462,6.72415385 1.63984615,7.59350769 1.63984615,8.50026154 C1.63984615,9.39707692 1.81638462,10.2614615 2.17050769,11.0928923 C2.52436923,11.9253692 3.02966154,12.6676154 3.68743077,13.3201538 C4.34493846,13.9729538 5.08692308,14.4706615 5.91443077,14.8148462 C6.74115385,15.1585077 7.60815385,15.3303385 8.51490769,15.3303385 C9.41146154,15.3303385 10.2802923,15.1564154 11.1232308,14.8075231 C11.9651231,14.4583692 12.7241077,13.9556923 13.4020154,13.2981846 C14.7070923,12.0229231 15.3593692,10.4238769 15.3593692,8.50052308 C15.3593692,7.57389231 15.1898923,6.69721538 14.8512,5.87023077 C14.5130308,5.04324615 14.0195077,4.30623077 13.3724615,3.65813846 C12.0265846,2.31304615 10.4079231,1.64036923 8.51490769,1.64036923 Z M8.41003077,7.11044615 L7.28881538,7.69341538 C7.16903077,7.44469231 7.02230769,7.26998462 6.84812308,7.17033846 C6.67367692,7.07095385 6.51178462,7.021 6.36218462,7.021 C5.61523077,7.021 5.24123077,7.514 5.24123077,8.50052308 C5.24123077,8.9488 5.33590769,9.30710769 5.525,9.57623077 C5.71435385,9.84535385 5.99341538,9.98004615 6.36218462,9.98004615 C6.85047692,9.98004615 7.19413846,9.74073846 7.39369231,9.26264615 L8.42467692,9.78572308 C8.20550769,10.1945077 7.9016,10.5156769 7.51295385,10.7497538 C7.12483077,10.9840923 6.69616923,11.101 6.22775385,11.101 C5.48053846,11.101 4.87743077,10.8721538 4.41921538,10.4134154 C3.961,9.9552 3.73189231,9.31756923 3.73189231,8.50078462 C3.73189231,7.70361538 3.96361538,7.07121538 4.4268,6.6028 C4.88998462,6.13464615 5.47530769,5.90030769 6.18303077,5.90030769 C7.21950769,5.89978462 7.96149231,6.30333846 8.41003077,7.11044615 Z M13.2372462,7.11044615 L12.1312,7.69341538 C12.0116769,7.44469231 11.8644308,7.26998462 11.6902462,7.17033846 C11.5155385,7.07095385 11.3484154,7.021 11.1896615,7.021 C10.4424462,7.021 10.0684462,7.514 10.0684462,8.50052308 C10.0684462,8.9488 10.1633846,9.30710769 10.3524769,9.57623077 C10.5415692,9.84535385 10.8203692,9.98004615 11.1896615,9.98004615 C11.6774308,9.98004615 12.0213538,9.74073846 12.2203846,9.26264615 L13.2665385,9.78572308 C13.0376923,10.1945077 12.7285538,10.5156769 12.3404308,10.7497538 C11.9517846,10.9840923 11.5283538,11.101 11.0701385,11.101 C10.3127231,11.101 9.70778462,10.8721538 9.2548,10.4134154 C8.80076923,9.9552 8.57427692,9.31756923 8.57427692,8.50078462 C8.57427692,7.70361538 8.80573846,7.07121538 9.26944615,6.6028 C9.73236923,6.13464615 10.3176923,5.90030769 11.0251538,5.90030769 C12.0613692,5.89978462 12.7991692,6.30333846 13.2372462,7.11044615 Z" id="Shape"></path>
                        </g>
                    </g>
                </g>
            </g>
        </g>
    </g>
</svg>