<?xml version="1.0" encoding="UTF-8"?>
<svg width="18px" height="24px" viewBox="0 0 18 24" version="1.1" xmlns="http://www.w3.org/2000/svg" xmlns:xlink="http://www.w3.org/1999/xlink">
    <title>icons/cc-slim</title>
    <g id="icons/cc-slim" stroke="none" stroke-width="1" fill="none" fill-rule="evenodd">
        <g id="cc" transform="translate(0.000000, 2.000000)" fill="#959595" fill-rule="nonzero">
            <path d="M8.98354662,0 C11.5010547,0 13.6444944,0.878919983 15.4121783,2.63591619 C16.2581915,3.48221066 16.9014203,4.44944452 17.3407397,5.53677401 C17.7797778,6.62438476 18,7.77865279 18,9.00014063 C18,10.2323161 17.7825904,11.3868654 17.3491773,12.463226 C16.9152018,13.5398678 16.2747855,14.4910702 15.4287723,15.3159893 C14.5504149,16.1836591 13.5539305,16.8482633 12.4393194,17.308958 C11.3252707,17.7696527 10.1732527,18 8.98410913,18 C7.79496555,18 6.65644776,17.7727464 5.56883701,17.3168331 C4.48150752,16.8617635 3.50639854,16.2027844 2.64379131,15.3404584 C1.78118408,14.4781325 1.12501758,13.5055548 0.675010547,12.4232879 C0.225003516,11.341021 0,10.2002531 0,9.00014063 C0,7.81071579 0.227534805,6.66713542 0.68288567,5.56883701 C1.13823653,4.4705386 1.80002813,3.48755449 2.66769793,2.61960343 C4.38194347,0.87357615 6.48713261,0 8.98354662,0 Z M9.01617213,1.62340037 C6.95907749,1.62340037 5.2285192,2.34144284 3.82477851,3.77696527 C3.11742371,4.49500773 2.57375896,5.30108283 2.19350302,6.19575306 C1.81268457,7.09042329 1.62283786,8.0253129 1.62283786,9.00042188 C1.62283786,9.9648432 1.81268457,10.894389 2.19350302,11.7884967 C2.57404022,12.6837294 3.11742371,13.4819294 3.82477851,14.1836591 C4.53185206,14.8856701 5.32977078,15.4208972 6.21965968,15.791028 C7.10870482,16.1605963 8.04106314,16.3453804 9.01617213,16.3453804 C9.98031219,16.3453804 10.9146393,16.1583462 11.8211222,15.7831529 C12.7264801,15.4076782 13.5426804,14.8671073 14.2716917,14.1600338 C15.6751512,12.7886373 16.3765996,11.069048 16.3765996,9.00070314 C16.3765996,8.00421882 16.1943468,7.06145409 15.8301223,6.17212769 C15.4664604,5.28280129 14.9357334,4.49022641 14.23991,3.79327802 C12.7925749,2.34678667 11.0518914,1.62340037 9.01617213,1.62340037 Z M8.90338912,7.50583603 L7.69765153,8.13275207 C7.56883701,7.86527914 7.4110533,7.67740121 7.22373787,7.57024329 C7.03614119,7.46336662 6.86204472,7.40964703 6.70116721,7.40964703 C5.89790465,7.40964703 5.49571087,7.93981156 5.49571087,9.00070314 C5.49571087,9.48277317 5.59752496,9.86809169 5.80087189,10.1575025 C6.00450007,10.4469132 6.30459851,10.5917592 6.70116721,10.5917592 C7.22626916,10.5917592 7.59583743,10.3344115 7.81043454,9.82027844 L8.91913936,10.3827872 C8.68344818,10.8223878 8.35663057,11.1677682 7.93868654,11.4194909 C7.52130502,11.6714949 7.06032907,11.7972156 6.55660245,11.7972156 C5.75305864,11.7972156 5.10448601,11.551118 4.61172831,11.0577978 C4.11897061,10.5650401 3.87259176,9.87934186 3.87259176,9.00098439 C3.87259176,8.143721 4.12178315,7.46364787 4.61988469,6.95992125 C5.11798622,6.45647588 5.74743355,6.2044714 6.50850795,6.2044714 C7.62311911,6.20390944 8.42103783,6.63788497 8.90338912,7.50583603 Z M14.0945015,7.50583603 L12.9050766,8.13275207 C12.7765434,7.86527914 12.6181972,7.67740121 12.4308817,7.57024329 C12.2430038,7.46336662 12.0632822,7.40964703 11.8925608,7.40964703 C11.089017,7.40964703 10.6868232,7.93981156 10.6868232,9.00070314 C10.6868232,9.48277317 10.7889186,9.86809169 10.9922655,10.1575025 C11.1956124,10.4469132 11.4954296,10.5917592 11.8925608,10.5917592 C12.4171003,10.5917592 12.7869498,10.3344115 13.0009844,9.82027844 L14.126002,10.3827872 C13.8799044,10.8223878 13.5474617,11.1677682 13.1300802,11.4194909 C12.7121361,11.6714949 12.2567853,11.7972156 11.7640276,11.7972156 C10.9495148,11.7972156 10.2989734,11.551118 9.81184081,11.0577978 C9.32358318,10.5650401 9.08001688,9.87934186 9.08001688,9.00098439 C9.08001688,8.143721 9.32892701,7.46364787 9.82759106,6.95992125 C10.3254113,6.45647588 10.9548587,6.2044714 11.7156518,6.2044714 C12.8299817,6.20390944 13.6234004,6.63788497 14.0945015,7.50583603 Z" id="Shape"></path>
        </g>
    </g>
</svg>