<?xml version="1.0" encoding="UTF-8"?>
<svg width="24px" height="24px" viewBox="0 0 24 24" version="1.1" xmlns="http://www.w3.org/2000/svg" xmlns:xlink="http://www.w3.org/1999/xlink">
    <title>icons/commenting/default-right</title>
    <g id="icons/commenting/default-right" stroke="none" stroke-width="1" fill="none" fill-rule="evenodd">
        <path d="M20,3 L4,3 C2.9,3 2,3.9 2,5 L2,23 L6,19 L20,19 C21.1,19 22,18.1 22,17 L22,5 C22,3.9 21.1,3 20,3 L20,3 Z M6,10 L18,10 L18,12 L6,12 L6,10 L6,10 Z M14,15 L6,15 L6,13 L14,13 L14,15 L14,15 Z M18,9 L6,9 L6,7 L18,7 L18,9 L18,9 Z" id="Shape" fill="#212121"></path>
    </g>
</svg>