<?xml version="1.0" encoding="UTF-8"?>
<svg width="24px" height="24px" viewBox="0 0 24 24" version="1.1" xmlns="http://www.w3.org/2000/svg" xmlns:xlink="http://www.w3.org/1999/xlink">
    <title>icons/facebook/default</title>
    <defs>
        <polygon id="path-1" points="0.00115979381 0.000769651429 19.7938144 0.000769651429 19.7938144 19.5833958 0.00115979381 19.5833958"></polygon>
    </defs>
    <g id="icons/facebook/default" stroke="none" stroke-width="1" fill="none" fill-rule="evenodd">
        <rect id="clear-button-bg" x="0" y="0" width="24" height="24"></rect>
        <g id="f_logo_RGB-Black_1024" transform="translate(2.000000, 2.000000)">
            <g id="Group-3">
                <mask id="mask-2" fill="white">
                    <use xlink:href="#path-1"></use>
                </mask>
                <g id="Clip-2"></g>
                <path d="M19.7938144,9.85153829 C19.7938144,4.41067993 15.3628222,0 9.89690722,0 C4.43099227,0 0,4.41067993 0,9.85153829 C0,14.7687258 3.61915593,18.844338 8.35051546,19.5833958 L8.35051546,12.6992486 L5.83762887,12.6992486 L5.83762887,9.85153829 L8.35051546,9.85153829 L8.35051546,7.68112126 C8.35051546,5.21207948 9.82805412,3.84825714 12.0887242,3.84825714 C13.1715271,3.84825714 14.3041237,4.04067 14.3041237,4.04067 L14.3041237,6.465072 L13.0561469,6.465072 C11.8267075,6.465072 11.443299,7.22446783 11.443299,8.00354749 L11.443299,9.85153829 L14.1881443,9.85153829 L13.7493557,12.6992486 L11.443299,12.6992486 L11.443299,19.5833958 C16.1746585,18.844338 19.7938144,14.7687258 19.7938144,9.85153829" id="Fill-1" fill="#0A0B09" mask="url(#mask-2)"></path>
            </g>
            <path d="M13.6728805,12.7805025 L14.1110013,9.92893604 L11.3703338,9.92893604 L11.3703338,8.07844285 C11.3703338,7.29830823 11.7531587,6.5378841 12.9807268,6.5378841 L14.2268041,6.5378841 L14.2268041,4.11019918 C14.2268041,4.11019918 13.0959314,3.91752577 12.0147766,3.91752577 C9.75754743,3.91752577 8.28225768,5.28319488 8.28225768,7.75558002 L8.28225768,9.92893604 L5.77319588,9.92893604 L5.77319588,12.7805025 L8.28225768,12.7805025 L8.28225768,19.6739716 C8.78536318,19.752775 9.30101398,19.7938144 9.82629572,19.7938144 C10.3515775,19.7938144 10.8672283,19.752775 11.3703338,19.6739716 L11.3703338,12.7805025 L13.6728805,12.7805025" id="Fill-4" fill="#FFFFFE"></path>
        </g>
    </g>
</svg>