<?xml version="1.0" encoding="UTF-8"?>
<svg width="24px" height="24px" viewBox="0 0 24 24" version="1.1" xmlns="http://www.w3.org/2000/svg" xmlns:xlink="http://www.w3.org/1999/xlink">
    <title>linkedin</title>
    <g id="linkedin" stroke="none" stroke-width="1" fill="none" fill-rule="evenodd">
        <g id="Group-3">
            <rect id="Rectangle" x="0" y="0" width="24" height="24"></rect>
            <path d="M18.9751954,18.9751435 L16.0232549,18.9751435 L16.0232549,14.3522816 C16.0232549,13.2499163 16.0035753,11.8308324 14.4879383,11.8308324 C12.9504693,11.8308324 12.7152366,13.0319032 12.7152366,14.2720257 L12.7152366,18.974836 L9.76329605,18.974836 L9.76329605,9.46835755 L12.5971589,9.46835755 L12.5971589,10.7675189 L12.6368256,10.7675189 C13.2146663,9.77952684 14.2890899,9.18943873 15.4328668,9.23189481 C18.4247815,9.23189481 18.9764254,11.1998552 18.9764254,13.7600486 L18.9751954,18.9751435 Z M6.43252317,8.16888876 C5.48643292,8.16905854 4.71933758,7.40223852 4.71916773,6.45614827 C4.71899794,5.51005802 5.48581795,4.74296266 6.4319082,4.74279281 C7.37799845,4.74262301 8.14509382,5.50944301 8.14526368,6.45553326 C8.14534522,6.90986184 7.96494211,7.34561469 7.64374096,7.66693118 C7.32253981,7.98824766 6.88685175,8.16880719 6.43252317,8.16888876 M7.90849343,18.9751435 L4.95347798,18.9751435 L4.95347798,9.46835755 L7.90849343,9.46835755 L7.90849343,18.9751435 Z M20.4468607,2.00148552 L3.47012787,2.00148552 C2.66777241,1.99243094 2.00979231,2.63513479 2,3.43748159 L2,20.4846305 C2.00945705,21.2873639 2.6673842,21.9307041 3.47012787,21.9222811 L20.4468607,21.9222811 C21.2511925,21.9322515 21.9116962,21.2889485 21.922831,20.4846305 L21.922831,3.43625161 C21.9113617,2.63231978 21.2508045,1.98965267 20.4468607,2.00012622" id="Path_2520" fill="#212121" fill-rule="nonzero"></path>
        </g>
    </g>
</svg>