<?xml version="1.0" encoding="UTF-8"?>
<svg width="15px" height="22px" viewBox="0 0 15 22" version="1.1" xmlns="http://www.w3.org/2000/svg" xmlns:xlink="http://www.w3.org/1999/xlink">
    <!-- Generator: Sketch 44.1 (41455) - http://www.bohemiancoding.com/sketch -->
    <title>oa</title>
    <desc>Created with Sketch.</desc>
    <defs></defs>
    <g id="desktop" stroke="none" stroke-width="1" fill="none" fill-rule="evenodd">
        <g id="Desktop-HD---code-block" transform="translate(-162.000000, -109.000000)" fill-rule="nonzero" fill="#BDBDBD">
            <g id="page" transform="translate(-5.000000, -2.000000)">
                <g id="header" transform="translate(166.000000, 111.000000)">
                    <g id="cc-by">
                        <g id="oa" transform="translate(8.500000, 10.731250) scale(-1, 1) rotate(180.000000) translate(-8.500000, -10.731250) translate(1.700000, 0.000000)">
                            <path d="M1.10526562,15.7157917 L1.10526562,14.9325521 L3.40185937,14.9325521 L3.40185937,15.7157917 C3.40185937,17.6116458 4.94434375,19.1539531 6.84002083,19.1539531 C8.73560937,19.1539531 10.2780052,17.6116458 10.2780052,15.7157917 L10.2780052,10.0504531 L12.5746875,10.0504531 L12.5746875,15.7157917 C12.5746875,18.8778802 10.0020208,21.4505469 6.84002083,21.4505469 C3.67810937,21.4505469 1.10526563,18.8778802 1.10526563,15.7157917 M8.74375521,6.74404167 C8.74375521,5.69783333 7.89552604,4.84960417 6.84905208,4.84960417 C5.80266667,4.84960417 4.9544375,5.69783333 4.9544375,6.74404167 C4.9544375,7.79086979 5.80266667,8.6391875 6.84905208,8.6391875 C7.89552604,8.6391875 8.74375521,7.79086979 8.74375521,6.74404167" id="Shape"></path>
                            <path d="M2.36122917,6.76449479 C2.36122917,9.22692708 4.36466146,11.2301823 6.82709375,11.2301823 C9.28934896,11.2301823 11.2925156,9.22692708 11.2925156,6.76449479 C11.2925156,4.30223958 9.28934896,2.29863021 6.82709375,2.29863021 C4.36466146,2.29871875 2.36122917,4.30232813 2.36122917,6.76449479 L2.36122917,6.76449479 Z M0.0646354167,6.76449479 C0.0646354167,3.03609375 3.09851562,0.00230208333 6.82700521,0.00230208333 C10.5555833,0.00230208333 13.5891979,3.03618229 13.5891979,6.76449479 C13.5891979,10.49325 10.5555833,13.5268646 6.82700521,13.5268646 C3.09851562,13.5268646 0.0646354167,10.49325 0.0646354167,6.76449479 L0.0646354167,6.76449479 Z" id="Shape"></path>
                        </g>
                    </g>
                </g>
            </g>
        </g>
    </g>
</svg>