<?xml version="1.0" encoding="UTF-8"?>
<svg width="16px" height="24px" viewBox="0 0 16 24" version="1.1" xmlns="http://www.w3.org/2000/svg" xmlns:xlink="http://www.w3.org/1999/xlink">
    <title>icons/oa-slim</title>
    <g id="icons/oa-slim" stroke="none" stroke-width="1" fill="none" fill-rule="evenodd">
        <path d="M8.01153453,1.42108547e-14 C10.7936089,1.42108547e-14 13.0541856,2.21244073 13.0991189,4.95857228 L13.1003093,9.7789208 C13.6706395,10.6886153 14,11.7621197 14,12.9118489 C14,16.1953441 11.3137085,18.8571429 8,18.8571429 C4.6862915,18.8571429 2,16.1953441 2,12.9118489 C2,9.62835375 4.6862915,6.96655499 8,6.96655499 C9.11891456,6.96655499 10.1662936,7.27004225 11.0628729,7.79847515 L11.06202,5.04195002 C11.06202,3.3725274 9.69626678,2.0192008 8.01153453,2.0192008 C6.34364961,2.0192008 4.98839603,3.3455962 4.96145774,4.99196321 L4.96104907,5.73054521 L2.92326844,5.73054521 L2.92326844,5.04195002 C2.92326844,2.25736223 5.20135841,1.42108547e-14 8.01153453,1.42108547e-14 Z M8,8.98575578 C5.81172666,8.98575578 4.03778062,10.7435276 4.03778062,12.9118489 C4.03778062,15.0801703 5.81172666,16.8379421 8,16.8379421 C10.1882733,16.8379421 11.9622194,15.0801703 11.9622194,12.9118489 C11.9622194,10.7435276 10.1882733,8.98575578 8,8.98575578 Z M8,11.1428571 C8.94677386,11.1428571 9.71428571,11.910369 9.71428571,12.8571429 C9.71428571,13.8039167 8.94677386,14.5714286 8,14.5714286 C7.05322614,14.5714286 6.28571429,13.8039167 6.28571429,12.8571429 C6.28571429,11.910369 7.05322614,11.1428571 8,11.1428571 Z" id="Combined-Shape" fill="#959595" fill-rule="nonzero"></path>
    </g>
</svg>