<?xml version="1.0" encoding="UTF-8"?>
<svg width="24px" height="24px" viewBox="0 0 24 24" version="1.1" xmlns="http://www.w3.org/2000/svg" xmlns:xlink="http://www.w3.org/1999/xlink">
    <title>icons/oa</title>
    <g id="icons/oa" stroke="none" stroke-width="1" fill="none" fill-rule="evenodd">
        <path d="M12.0115345,1.42108547e-14 C14.7936089,1.42108547e-14 17.0541856,2.21244073 17.0991189,4.95857228 L17.1003093,9.7789208 C17.6706395,10.6886153 18,11.7621197 18,12.9118489 C18,16.1953441 15.3137085,18.8571429 12,18.8571429 C8.6862915,18.8571429 6,16.1953441 6,12.9118489 C6,9.62835375 8.6862915,6.96655499 12,6.96655499 C13.1189146,6.96655499 14.1662936,7.27004225 15.0628729,7.79847515 L15.06202,5.04195002 C15.06202,3.3725274 13.6962668,2.0192008 12.0115345,2.0192008 C10.3436496,2.0192008 8.98839603,3.3455962 8.96145774,4.99196321 L8.96104907,5.73054521 L6.92326844,5.73054521 L6.92326844,5.04195002 C6.92326844,2.25736223 9.20135841,1.42108547e-14 12.0115345,1.42108547e-14 Z M12,8.98575578 C9.81172666,8.98575578 8.03778062,10.7435276 8.03778062,12.9118489 C8.03778062,15.0801703 9.81172666,16.8379421 12,16.8379421 C14.1882733,16.8379421 15.9622194,15.0801703 15.9622194,12.9118489 C15.9622194,10.7435276 14.1882733,8.98575578 12,8.98575578 Z M12,11.1428571 C12.9467739,11.1428571 13.7142857,11.910369 13.7142857,12.8571429 C13.7142857,13.8039167 12.9467739,14.5714286 12,14.5714286 C11.0532261,14.5714286 10.2857143,13.8039167 10.2857143,12.8571429 C10.2857143,11.910369 11.0532261,11.1428571 12,11.1428571 Z" id="Combined-Shape" fill="#767676" fill-rule="nonzero"></path>
    </g>
</svg>