<?xml version="1.0" encoding="UTF-8"?>
<svg width="16px" height="16px" viewBox="0 0 16 16" version="1.1" xmlns="http://www.w3.org/2000/svg" xmlns:xlink="http://www.w3.org/1999/xlink">
    <!-- Generator: Sketch 46.2 (44496) - http://www.bohemiancoding.com/sketch -->
    <title>orcide-logo</title>
    <desc>Created with Sketch.</desc>
    <defs></defs>
    <g id="Page-1" stroke="none" stroke-width="1" fill="none" fill-rule="evenodd">
        <g id="orcide-logo" fill-rule="nonzero">
            <g id="vector_iD_icon">
                <path d="M16,8 C16,12.41875 12.41875,16 8,16 C3.58125,16 0,12.41875 0,8 C0,3.58125 3.58125,0 8,0 C12.41875,0 16,3.58125 16,8 Z" id="Shape" fill="#A6CE39"></path>
                <g id="Group" transform="translate(4.250000, 2.875000)" fill="#FFFFFF">
                    <polygon id="Shape" points="1.14375 8.7625 0.18125 8.7625 0.18125 2.06875 1.14375 2.06875 1.14375 5.09375 1.14375 8.7625"></polygon>
                    <path d="M2.55625,2.06875 L5.15625,2.06875 C7.63125,2.06875 8.71875,3.8375 8.71875,5.41875 C8.71875,7.1375 7.375,8.76875 5.16875,8.76875 L2.55625,8.76875 L2.55625,2.06875 Z M3.51875,7.9 L5.05,7.9 C7.23125,7.9 7.73125,6.24375 7.73125,5.41875 C7.73125,4.075 6.875,2.9375 5,2.9375 L3.51875,2.9375 L3.51875,7.9 Z" id="Shape"></path>
                    <path d="M1.29375,0.675 C1.29375,1.01875 1.0125,1.30625 0.6625,1.30625 C0.3125,1.30625 0.03125,1.01875 0.03125,0.675 C0.03125,0.325 0.3125,0.04375 0.6625,0.04375 C1.0125,0.04375 1.29375,0.33125 1.29375,0.675 Z" id="Shape"></path>
                </g>
            </g>
        </g>
    </g>
</svg>