<?xml version="1.0" encoding="UTF-8"?>
<svg width="128px" height="128px" viewBox="0 0 128 128" version="1.1" xmlns="http://www.w3.org/2000/svg" xmlns:xlink="http://www.w3.org/1999/xlink">
    <title>ORCID-padlock</title>
    <g id="Page-1" stroke="none" stroke-width="1" fill="none" fill-rule="evenodd">
        <g id="ORCID-error-instructions-inline" transform="translate(-656.000000, -240.000000)">
            <rect fill="#FFFFFF" x="0" y="0" width="1440" height="2649"></rect>
            <g id="ORCIDiD_iconvector" transform="translate(656.000000, 240.000000)" fill-rule="nonzero">
                <path d="M128,64 C128,99.35 99.35,128 64,128 C28.65,128 0,99.35 0,64 C0,28.65 28.65,0 64,0 C99.35,0 128,28.65 128,64 Z" id="Path" fill="#A6CE39"></path>
                <g id="Group" transform="translate(34.000000, 23.000000)" fill="#FFFFFF">
                    <polygon id="Path" points="9.15 70.1 1.45 70.1 1.45 16.55 9.15 16.55 9.15 40.75 9.15 70.1"></polygon>
                    <path d="M20.45,16.55 L41.25,16.55 C61.05,16.55 69.75,30.7 69.75,43.35 C69.75,57.1 59,70.15 41.35,70.15 L20.45,70.15 L20.45,16.55 Z M28.15,63.2 L40.4,63.2 C57.85,63.2 61.85,49.95 61.85,43.35 C61.85,32.6 55,23.5 40,23.5 L28.15,23.5 L28.15,63.2 Z" id="Shape"></path>
                    <path d="M10.35,5.4 C10.35,8.15 8.1,10.45 5.3,10.45 C2.5,10.45 0.25,8.15 0.25,5.4 C0.25,2.6 2.5,0.35 5.3,0.35 C8.1,0.35 10.35,2.65 10.35,5.4 Z" id="Path"></path>
                </g>
            </g>
            <path d="M780,340 L778,340 L778,336 C778,330.48 773.52,326 768,326 C762.48,326 758,330.48 758,336 L758,340 L756,340 C753.8,340 752,341.8 752,344 L752,364 C752,366.2 753.8,368 756,368 L780,368 C782.2,368 784,366.2 784,364 L784,344 C784,341.8 782.2,340 780,340 Z M768,358 C765.8,358 764,356.2 764,354 C764,351.8 765.8,350 768,350 C770.2,350 772,351.8 772,354 C772,356.2 770.2,358 768,358 Z M774.2,340 L761.8,340 L761.8,336 C761.8,332.58 764.58,329.8 768,329.8 C771.42,329.8 774.2,332.58 774.2,336 L774.2,340 Z" id="Shape" fill="#000000" fill-rule="nonzero"></path>
        </g>
    </g>
</svg>