<?xml version="1.0" encoding="UTF-8" standalone="no"?>
<svg width="20px" height="6px" viewBox="0 0 20 6" version="1.1" xmlns="http://www.w3.org/2000/svg" xmlns:xlink="http://www.w3.org/1999/xlink">
    <!-- Generator: Sketch 3.8.3 (29802) - http://www.bohemiancoding.com/sketch -->
    <title>x2-format</title>
    <desc>Created with Sketch.</desc>
    <defs></defs>
    <g id="Page-1" stroke="none" stroke-width="1" fill="none" fill-rule="evenodd">
        <g id="home" transform="translate(-638.000000, -1574.000000)">
            <g id="listing" transform="translate(43.000000, 576.000000)">
                <g id="result" transform="translate(1.000000, 883.000000)">
                    <g id="x1-format" transform="translate(594.000000, 115.000000)">
                        <g id="ic_http_black_24px">
                            <g>
                                <g id="p">
                                    <rect id="Rectangle-92" fill="#C8C8C8" x="0" y="0" width="1" height="6"></rect>
                                    <rect id="Rectangle-92" fill="#C8C8C8" x="1" y="0" width="3" height="1"></rect>
                                    <rect id="Rectangle-92" fill="#C8C8C8" x="1" y="3" width="3" height="1"></rect>
                                    <rect id="Rectangle-92" fill="#C8C8C8" x="4" y="1" width="1" height="2"></rect>
                                    <rect id="Rectangle-92" fill="#D6D6D6" x="1" y="1" width="1" height="2"></rect>
                                    <rect id="Rectangle-92" fill="#D6D6D6" x="1" y="4" width="1" height="2"></rect>
                                    <rect id="Rectangle-92" fill="#E4E4E4" x="4" y="3" width="1" height="1"></rect>
                                    <rect id="Rectangle-92" fill="#E4E4E4" x="4" y="0" width="1" height="1"></rect>
                                    <rect id="Rectangle-92" fill="#D6D6D6" x="3" y="1" width="1" height="2"></rect>
                                </g>
                                <g id="d" transform="translate(8.000000, 0.000000)">
                                    <rect id="Rectangle-77" fill="#CACACA" x="0" y="0" width="1" height="6"></rect>
                                    <rect id="Rectangle-77" fill="#CACACA" x="0" y="0" width="4" height="1"></rect>
                                    <rect id="Rectangle-77" fill="#CACACA" x="0" y="5" width="4" height="1"></rect>
                                    <rect id="Rectangle-77" fill="#CACACA" x="4" y="1" width="1" height="4"></rect>
                                    <rect id="Rectangle-77" fill="#D6D6D6" x="1" y="1" width="1" height="4"></rect>
                                    <rect id="Rectangle-77" fill="#D6D6D6" x="3" y="1" width="1" height="4"></rect>
                                    <rect id="Rectangle-77" fill="#FFFFFF" x="2" y="1" width="1" height="4"></rect>
                                    <rect id="Rectangle-77" fill="#E4E4E4" x="4" y="0" width="1" height="1"></rect>
                                    <rect id="Rectangle-77" fill="#E4E4E4" x="4" y="5" width="1" height="1"></rect>
                                </g>
                                <g id="f" transform="translate(16.000000, 0.000000)">
                                    <rect id="Rectangle-77" fill="#CACACA" x="0" y="0" width="1" height="6"></rect>
                                    <rect id="Rectangle-77" fill="#D6D6D6" x="1" y="4" width="1" height="2"></rect>
                                    <rect id="Rectangle-77" fill="#D6D6D6" x="1" y="1" width="1" height="2"></rect>
                                    <rect id="Rectangle-77" fill="#CACACA" x="1" y="0" width="3" height="1"></rect>
                                    <rect id="Rectangle-77" fill="#CACACA" x="1" y="3" width="3" height="1"></rect>
                                    <rect id="Rectangle-77" fill="#D6D6D6" x="1" y="1" width="3" height="1"></rect>
                                </g>
                            </g>
                        </g>
                    </g>
                </g>
            </g>
        </g>
    </g>
</svg>