<svg xmlns="http://www.w3.org/2000/svg" width="20" height="20" viewBox="0 0 20 20">
  <title>
    post-medium-20px-hover-1x
  </title>
  <path fill="#0288D1" fill-rule="evenodd" d="M18 0H2C.9 0 0 .9 0 2v16c0 1.1.9 2 2 2h16c1.1 0 2-.9 2-2V2c0-1.1-.9-2-2-2zm-1.39 6.5h-.498c-.186 0-.4.243-.4.414v6.214c0 .172.214.43.4.43h.5V15h-4.476v-1.443h.898V7.03h-.043L10.784 15h-1.71l-2.18-7.97H6.85v6.527h.94V15H4v-1.443h.484c.2 0 .414-.257.414-.43V6.915c0-.17-.214-.414-.414-.414H4V5h4.73l1.554 5.8h.043L11.894 5h4.717v1.5z"/>
</svg>
