<svg xmlns="http://www.w3.org/2000/svg" width="20" height="20" viewBox="0 0 20 20">
  <title>
    post-twitter-20px-1x
  </title>
  <path fill="#212121" fill-rule="evenodd" d="M18 0H2C.9 0 0 .9 0 2v16c0 1.1.9 2 2 2h16c1.1 0 2-.9 2-2V2c0-1.1-.9-2-2-2zm-2.3 7.3c-.1 4.6-3 7.8-7.4 8-1.8.1-3.1-.5-4.3-1.2 1.3.2 3-.3 3.9-1.1-1.3-.1-2.1-.8-2.5-1.9.4.1.8 0 1.1 0-1.2-.4-2-1.1-2.1-2.7.3.2.7.3 1.1.3-.9-.5-1.5-2.4-.8-3.6C6 6.5 7.6 7.7 10.2 7.9c-.7-2.8 3.1-4.3 4.6-2.4.7-.1 1.2-.4 1.7-.6-.2.7-.6 1.1-1.1 1.5.5-.1 1-.2 1.4-.4-.1.5-.6.9-1.1 1.3z"/>
</svg>
