<svg xmlns="http://www.w3.org/2000/svg" width="20" height="20" viewBox="0 0 20 20"><title>Google+ icon - blue</title><path fill="#0288D1" fill-rule="evenodd" d="M9.2 6.9c0-1-.6-3-2.1-3-.6 0-1.3.4-1.3 1.7 0 1.2.6 2.9 2 2.9 0 0 1.4-.1 1.4-1.6zm-.6 4.9h-.3c-.3 0-1.2.1-1.8.3-.7.2-1.5.7-1.5 1.7C5 14.9 6 16 8 16c1.5 0 2.4-1 2.4-2 0-.7-.5-1.2-1.8-2.2zM18 0H2C.9 0 0 .9 0 2v16c0 1.1.9 2 2 2h16c1.1 0 2-.9 2-2V2c0-1.1-.9-2-2-2zM7.1 17.2c-2.8 0-4.1-1.6-4.1-3 0-.5.1-1.6 1.5-2.4.8-.5 1.8-.8 3.1-.9-.2-.2-.3-.5-.3-1 0-.2 0-.3.1-.5H7c-2 0-3.2-1.5-3.2-3 0-1.7 1.3-3.6 4.1-3.6h4.2l-.3.3-.7.7-.1.1h-.7c.4.4.9 1.1.9 2.2 0 1.4-.7 2.1-1.6 2.7-.2.1-.4.4-.4.7 0 .3.2.5.4.6.1.1.3.2.5.3.8.6 1.9 1.3 1.9 2.9 0 1.8-1.3 3.9-4.9 3.9zM17 10h-2v2h-1v-2h-2V9h2V7h1v2h2v1z"/></svg>
