<?xml version="1.0" encoding="UTF-8"?>
<svg width="20px" height="20px" viewBox="0 0 20 20" version="1.1" xmlns="http://www.w3.org/2000/svg" xmlns:xlink="http://www.w3.org/1999/xlink">
    <!-- Generator: Sketch 46.2 (44496) - http://www.bohemiancoding.com/sketch -->
    <title>post-youtube-hover</title>
    <desc>Created with Sketch.</desc>
    <defs></defs>
    <g id="Symbols" stroke="none" stroke-width="1" fill="none" fill-rule="evenodd">
        <g id="global-footer/footer-hd" transform="translate(-236.000000, -579.000000)" fill="#0A9DD9">
            <g transform="translate(-4.000000, 0.000000)" id="footer-large">
                <g transform="translate(4.000000, 359.000000)">
                    <g id="social-media-links" transform="translate(188.000000, 220.000000)">
                        <g id="post-youtube-hover" transform="translate(48.000000, 0.000000)">
                            <path d="M2,0 L18,0 L18,0 C19.1045695,-2.02906125e-16 20,0.8954305 20,2 L20,18 L20,18 C20,19.1045695 19.1045695,20 18,20 L2,20 L2,20 C0.8954305,20 1.3527075e-16,19.1045695 0,18 L0,2 L0,2 C-1.3527075e-16,0.8954305 0.8954305,2.02906125e-16 2,0 Z M7.20235294,13.6881859 L7.20147059,5.69867152 L14.8302941,9.7072022 L7.20235294,13.6881859 Z" id="Youtube"></path>
                        </g>
                    </g>
                </g>
            </g>
        </g>
    </g>
</svg>