<?xml version="1.0" encoding="UTF-8"?>
<svg width="35px" height="24px" viewBox="0 0 35 24" version="1.1" xmlns="http://www.w3.org/2000/svg" xmlns:xlink="http://www.w3.org/1999/xlink">
    <!-- Generator: Sketch 46.2 (44496) - http://www.bohemiancoding.com/sketch -->
    <title>profile</title>
    <desc>Created with Sketch.</desc>
    <defs>
        <rect id="path-1" x="0" y="0" width="24" height="24" rx="2"></rect>
    </defs>
    <g id="Symbols" stroke="none" stroke-width="1" fill="none" fill-rule="evenodd">
        <g id="global-nav/nav-hd-logged-in" transform="translate(-1247.000000, -11.000000)">
            <g id="secondary">
                <g>
                    <g id="profile" transform="translate(1247.000000, 11.000000)">
                        <g id="arrow-drop-down-copy" transform="translate(27.000000, 6.000000)" fill="#212121">
                            <polygon id="Shape" points="0 0 4 4 8 0"></polygon>
                        </g>
                        <g id="img">
                            <mask id="mask-2" fill="white">
                                <use xlink:href="#path-1"></use>
                            </mask>
                            <use id="Rectangle-15" fill="#212121" xlink:href="#path-1"></use>
                            <g id="person" mask="url(#mask-2)" fill="#FFFFFF">
                                <g transform="translate(6.000000, 6.000000)" id="Shape">
                                    <path d="M6,6 C7.65,6 9,4.65 9,3 C9,1.35 7.65,0 6,0 C4.35,0 3,1.35 3,3 C3,4.65 4.35,6 6,6 L6,6 Z M6,7.5 C3.975,7.5 0,8.475 0,10.5 L0,12 L12,12 L12,10.5 C12,8.475 8.025,7.5 6,7.5 L6,7.5 Z"></path>
                                </g>
                            </g>
                        </g>
                    </g>
                </g>
            </g>
        </g>
    </g>
</svg>