<?xml version="1.0" encoding="UTF-8" standalone="no"?>
<svg width="44px" height="33px" viewBox="0 0 44 33" version="1.1" xmlns="http://www.w3.org/2000/svg" xmlns:xlink="http://www.w3.org/1999/xlink">
    <!-- Generator: Sketch 3.6.1 (26313) - http://www.bohemiancoding.com/sketch -->
    <title>quote-start</title>
    <desc>Created with Sketch.</desc>
    <defs></defs>
    <g id="individual-icons" stroke="none" stroke-width="1" fill="none" fill-rule="evenodd">
        <g id="quote-start" fill="#0288D1">
            <path d="M20.36,5.2 C17.3199848,6.1600048 14.900009,7.5999904 13.1,9.52 C11.299991,11.4400096 10.599998,13.9199848 11,16.96 C11.8800044,17.6800036 13.119992,18.4199962 14.72,19.18 C16.320008,19.9400038 17.719994,20.519998 18.92,20.92 C19.2400016,22.2000064 19.2400016,23.439994 18.92,24.64 C18.5999984,25.840006 18.0800036,26.8999954 17.36,27.82 C16.6399964,28.7400046 15.8000048,29.499997 14.84,30.1 C13.8799952,30.700003 13.000004,31.0399996 12.2,31.12 C9.399986,30.8799988 6.9600104,29.8400092 4.88,28 C2.7999896,26.1599908 1.76,23.5200172 1.76,20.08 C1.76,18.07999 2.0999966,16.08001 2.78,14.08 C3.4600034,12.07999 4.4799932,10.2200086 5.84,8.5 C7.2000068,6.7799914 8.9199896,5.2600066 11,3.94 C13.0800104,2.6199934 15.5599856,1.6800028 18.44,1.12 L20.36,5.2 Z" id="Path"></path>
            <path d="M42.2,5.2 C39.1599848,6.1600048 36.740009,7.5999904 34.94,9.52 C33.139991,11.4400096 32.439998,13.9199848 32.84,16.96 C33.7200044,17.6800036 34.959992,18.4199962 36.56,19.18 C38.160008,19.9400038 39.559994,20.519998 40.76,20.92 C41.0800016,22.2000064 41.0800016,23.439994 40.76,24.64 C40.4399984,25.840006 39.9200036,26.8999954 39.2,27.82 C38.4799964,28.7400046 37.6400048,29.499997 36.68,30.1 C35.7199952,30.700003 34.840004,31.0399996 34.04,31.12 C31.239986,30.8799988 28.8000104,29.8400092 26.72,28 C24.6399896,26.1599908 23.6,23.5200172 23.6,20.08 C23.6,18.07999 23.9399966,16.08001 24.62,14.08 C25.3000034,12.07999 26.3199932,10.2200086 27.68,8.5 C29.0400068,6.7799914 30.7599896,5.2600066 32.84,3.94 C34.9200104,2.6199934 37.3999856,1.6800028 40.28,1.12 L42.2,5.2 Z" id="Path"></path>
        </g>
    </g>
</svg>