<?xml version="1.0" encoding="UTF-8" standalone="no"?>
<svg width="44px" height="33px" viewBox="0 0 44 33" version="1.1" xmlns="http://www.w3.org/2000/svg" xmlns:xlink="http://www.w3.org/1999/xlink">
    <!-- Generator: Sketch 3.6.1 (26313) - http://www.bohemiancoding.com/sketch -->
    <title>quote-end</title>
    <desc>Created with Sketch.</desc>
    <defs></defs>
    <g id="individual-icons" stroke="none" stroke-width="1" fill="none" fill-rule="evenodd">
        <g id="quote-end" fill="#0288D1">
            <path d="M1.84,28.12 C4.9600156,27.1599952 7.5399898,25.5200116 9.58,23.2 C11.6200102,20.8799884 12.440002,18.2000152 12.04,15.16 C11.1599956,14.4399964 9.920008,13.7200036 8.32,13 C6.719992,12.2799964 5.320006,11.6800024 4.12,11.2 C3.719998,9.9199936 3.6999982,8.680006 4.06,7.48 C4.4200018,6.279994 4.9599964,5.2200046 5.68,4.3 C6.4000036,3.3799954 7.2199954,2.620003 8.14,2.02 C9.0600046,1.419997 9.9599956,1.12 10.84,1.12 C13.4800132,1.3600012 15.8799892,2.379991 18.04,4.18 C20.2000108,5.980009 21.28,8.6399824 21.28,12.16 C21.28,14.0800096 20.880004,16.0799896 20.08,18.16 C19.279996,20.2400104 18.1200076,22.1999908 16.6,24.04 C15.0799924,25.8800092 13.2400108,27.5199928 11.08,28.96 C8.9199892,30.4000072 6.5200132,31.4799964 3.88,32.2 L1.84,28.12 Z" id="Path"></path>
            <path d="M23.68,28.12 C26.8000156,27.1599952 29.3799898,25.5200116 31.42,23.2 C33.4600102,20.8799884 34.280002,18.2000152 33.88,15.16 C32.9999956,14.4399964 31.760008,13.7200036 30.16,13 C28.559992,12.2799964 27.160006,11.6800024 25.96,11.2 C25.559998,9.9199936 25.5399982,8.680006 25.9,7.48 C26.2600018,6.279994 26.7999964,5.2200046 27.52,4.3 C28.2400036,3.3799954 29.0599954,2.620003 29.98,2.02 C30.9000046,1.419997 31.7999956,1.12 32.68,1.12 C35.3200132,1.3600012 37.7199892,2.379991 39.88,4.18 C42.0400108,5.980009 43.12,8.6399824 43.12,12.16 C43.12,14.0800096 42.720004,16.0799896 41.92,18.16 C41.119996,20.2400104 39.9600076,22.1999908 38.44,24.04 C36.9199924,25.8800092 35.0800108,27.5199928 32.92,28.96 C30.7599892,30.4000072 28.3600132,31.4799964 25.72,32.2 L23.68,28.12 Z" id="Path"></path>
        </g>
    </g>
</svg>