<?xml version="1.0" encoding="UTF-8"?>
<svg width="24px" height="24px" viewBox="0 0 24 24" version="1.1" xmlns="http://www.w3.org/2000/svg" xmlns:xlink="http://www.w3.org/1999/xlink">
    <title>Group 4</title>
    <g id="Page-1" stroke="none" stroke-width="1" fill="none" fill-rule="evenodd">
        <g id="900" transform="translate(-759.000000, -385.000000)">
            <g id="Group-5" transform="translate(651.000000, 240.000000)">
                <g id="Group-4" transform="translate(108.000000, 145.000000)">
                    <g id="Group" transform="translate(1.051163, 1.051163)" fill-rule="nonzero">
                        <circle id="Oval" fill="#212121" cx="10.9360465" cy="10.9360465" r="10.9360465"></circle>
                        <path d="M18.2267442,10.9360465 C18.2267442,10.0534884 17.5104651,9.3372093 16.627907,9.3372093 C16.1930233,9.3372093 15.8093023,9.50348837 15.527907,9.78488372 C14.4406977,9.00465116 12.9313953,8.49302326 11.2686047,8.42906977 L11.9976744,5.01395349 L14.3639535,5.5127907 C14.3895349,6.11395349 14.8883721,6.6 15.5023256,6.6 C16.1290698,6.6 16.6406977,6.08837209 16.6406977,5.46162791 C16.6406977,4.83488372 16.1290698,4.32325581 15.5023256,4.32325581 C15.0546512,4.32325581 14.6709302,4.57906977 14.4918605,4.9627907 L11.844186,4.4 C11.7674419,4.3872093 11.6906977,4.4 11.6267442,4.43837209 C11.5627907,4.47674419 11.5244186,4.54069767 11.4988372,4.61744186 L10.6930233,8.42906977 C8.99186047,8.48023256 7.46976744,8.97906977 6.36976744,9.78488372 C6.08837209,9.51627907 5.69186047,9.3372093 5.26976744,9.3372093 C4.3872093,9.3372093 3.67093023,10.0534884 3.67093023,10.9360465 C3.67093023,11.5883721 4.05465116,12.1383721 4.61744186,12.394186 C4.59186047,12.5476744 4.57906977,12.7139535 4.57906977,12.8802326 C4.57906977,15.3360465 7.43139535,17.3186047 10.9616279,17.3186047 C14.4918605,17.3186047 17.344186,15.3360465 17.344186,12.8802326 C17.344186,12.7139535 17.3313953,12.5604651 17.305814,12.4069767 C17.8302326,12.1511628 18.2267442,11.5883721 18.2267442,10.9360465 Z M7.29069767,12.0744186 C7.29069767,11.4476744 7.80232558,10.9360465 8.42906977,10.9360465 C9.05581395,10.9360465 9.56744186,11.4476744 9.56744186,12.0744186 C9.56744186,12.7011628 9.05581395,13.2127907 8.42906977,13.2127907 C7.80232558,13.2127907 7.29069767,12.7011628 7.29069767,12.0744186 Z M13.6476744,15.0802326 C12.8674419,15.8604651 11.3837209,15.9116279 10.9488372,15.9116279 C10.5139535,15.9116279 9.01744186,15.8476744 8.25,15.0802326 C8.13488372,14.9651163 8.13488372,14.7732558 8.25,14.6581395 C8.36511628,14.5430233 8.55697674,14.5430233 8.67209302,14.6581395 C9.15813953,15.144186 10.2069767,15.3232558 10.9616279,15.3232558 C11.7162791,15.3232558 12.7523256,15.144186 13.2511628,14.6581395 C13.3662791,14.5430233 13.5581395,14.5430233 13.6732558,14.6581395 C13.7627907,14.7860465 13.7627907,14.9651163 13.6476744,15.0802326 Z M13.4430233,13.2127907 C12.8162791,13.2127907 12.3046512,12.7011628 12.3046512,12.0744186 C12.3046512,11.4476744 12.8162791,10.9360465 13.4430233,10.9360465 C14.0697674,10.9360465 14.5813953,11.4476744 14.5813953,12.0744186 C14.5813953,12.7011628 14.0697674,13.2127907 13.4430233,13.2127907 Z" id="Shape" fill="#FFFFFF"></path>
                    </g>
                    <rect id="Rectangle" x="0" y="0" width="24" height="24"></rect>
                </g>
            </g>
        </g>
    </g>
</svg>