<?xml version="1.0" encoding="UTF-8" standalone="no"?>
<svg width="22px" height="22px" viewBox="0 0 22 22" version="1.1" xmlns="http://www.w3.org/2000/svg" xmlns:xlink="http://www.w3.org/1999/xlink">
    <!-- Generator: Sketch 3.7.2 (28276) - http://www.bohemiancoding.com/sketch -->
    <title>search-clear</title>
    <desc>Created with Sketch.</desc>
    <defs></defs>
    <g id="individual-icons" stroke="none" stroke-width="1" fill="none" fill-rule="evenodd">
        <g id="search-clear" fill="#BDBDBD">
            <g id="cancel" transform="translate(1.000000, 1.000000)">
                <path d="M10,0 C4.5,0 0,4.5 0,10 C0,15.5 4.5,20 10,20 C15.5,20 20,15.5 20,10 C20,4.5 15.5,0 10,0 L10,0 Z M15,13.6 L13.6,15 L10,11.4 L6.4,15 L5,13.6 L8.6,10 L5,6.4 L6.4,5 L10,8.6 L13.6,5 L15,6.4 L11.4,10 L15,13.6 L15,13.6 Z" id="Shape"></path>
            </g>
        </g>
    </g>
</svg>