<?xml version="1.0" encoding="UTF-8"?>
<svg width="24px" height="24px" viewBox="0 0 24 24" version="1.1" xmlns="http://www.w3.org/2000/svg" xmlns:xlink="http://www.w3.org/1999/xlink">
    <title>icons/tweet/blue</title>
    <g id="icons/tweet/blue" stroke="none" stroke-width="1" fill="none" fill-rule="evenodd">
        <rect id="clear-button-bg" x="0" y="0" width="24" height="24"></rect>
        <g id="icons/download/small-copy-3" transform="translate(3.000000, 5.000000)" fill="#1DA1F2" fill-rule="nonzero">
            <path d="M18,1.73175 C17.33775,2.02575 16.626,2.22375 15.879,2.313 C16.64175,1.85625 17.2275,1.1325 17.50275,0.27 C16.7895,0.693 15.999,1.0005 15.1575,1.16625 C14.48475,0.4485 13.524,0 12.462,0 C10.07775,0 8.32575,2.2245 8.86425,4.53375 C5.796,4.38 3.075,2.91 1.25325,0.67575 C0.28575,2.3355 0.7515,4.50675 2.3955,5.60625 C1.791,5.58675 1.221,5.421 0.72375,5.14425 C0.68325,6.855 1.9095,8.4555 3.6855,8.81175 C3.16575,8.95275 2.5965,8.98575 2.0175,8.87475 C2.487,10.34175 3.8505,11.409 5.4675,11.439 C3.915,12.65625 1.959,13.2 0,12.969 C1.63425,14.01675 3.576,14.628 5.661,14.628 C12.5175,14.628 16.39125,8.83725 16.15725,3.6435 C16.87875,3.12225 17.505,2.472 18,1.73175 Z" id="Path"></path>
        </g>
    </g>
</svg>
