<?xml version="1.0" encoding="UTF-8"?>
<svg width="24px" height="24px" viewBox="0 0 24 24" version="1.1" xmlns="http://www.w3.org/2000/svg" xmlns:xlink="http://www.w3.org/1999/xlink">
    <title>icons/tweet/default</title>
    <g id="icons/tweet/default" stroke="none" stroke-width="1" fill="none" fill-rule="evenodd">
        <rect id="clear-button-bg" x="0" y="0" width="24" height="24"></rect>
        <g id="Group" transform="translate(2.000000, 2.000000)" fill="#000000" fill-rule="nonzero">
            <g id="Path">
                <path d="M19,4.73175 C18.33775,5.02575 17.626,5.22375 16.879,5.313 C17.64175,4.85625 18.2275,4.1325 18.50275,3.27 C17.7895,3.693 16.999,4.0005 16.1575,4.16625 C15.48475,3.4485 14.524,3 13.462,3 C11.07775,3 9.32575,5.2245 9.86425,7.53375 C6.796,7.38 4.075,5.91 2.25325,3.67575 C1.28575,5.3355 1.7515,7.50675 3.3955,8.60625 C2.791,8.58675 2.221,8.421 1.72375,8.14425 C1.68325,9.855 2.9095,11.4555 4.6855,11.81175 C4.16575,11.95275 3.5965,11.98575 3.0175,11.87475 C3.487,13.34175 4.8505,14.409 6.4675,14.439 C4.915,15.65625 2.959,16.2 1,15.969 C2.63425,17.01675 4.576,17.628 6.661,17.628 C13.5175,17.628 17.39125,11.83725 17.15725,6.6435 C17.87875,6.12225 18.505,5.472 19,4.73175 Z"></path>
            </g>
        </g>
    </g>
</svg>