<?xml version="1.0" encoding="UTF-8" standalone="no"?>
<svg width="66px" height="10px" viewBox="0 0 66 10" version="1.1" xmlns="http://www.w3.org/2000/svg" xmlns:xlink="http://www.w3.org/1999/xlink">
    <!-- Generator: Sketch 3.8.3 (29802) - http://www.bohemiancoding.com/sketch -->
    <title>x2-format</title>
    <desc>Created with Sketch.</desc>
    <defs></defs>
    <g id="Page-1" stroke="none" stroke-width="1" fill="none" fill-rule="evenodd">
        <g id="home" transform="translate(-592.000000, -1417.000000)">
            <g id="listing" transform="translate(43.000000, 576.000000)">
                <g id="result" transform="translate(1.000000, 655.000000)">
                    <g id="x2-format" transform="translate(548.000000, 184.000000)">
                        <g>
                            <g id="ic_http_black_24px" transform="translate(0.000000, 4.000000)"></g>
                            <g id="html" transform="translate(0.000000, 4.000000)">
                                <path d="M3.5,2 L1.5,2 L1.5,0 L0,0 L0,6 L1.5,6 L1.5,3.5 L3.5,3.5 L3.5,6 L5,6 L5,0 L3.5,0 L3.5,2 L3.5,2 Z M6,1.5 L7.5,1.5 L7.5,6 L9,6 L9,1.5 L10.5,1.5 L10.5,0 L6,0 L6,1.5 L6,1.5 Z" id="Shape" fill="#C8C8C8"></path>
                                <g id="m" transform="translate(12.000000, 0.000000)">
                                    <rect id="Rectangle-61" fill="#E4E4E4" x="1" y="0" width="1" height="1"></rect>
                                    <rect id="Rectangle-61" fill="#E4E4E4" x="3" y="0" width="1" height="1"></rect>
                                    <rect id="Rectangle-61" fill="#E4E4E4" x="1" y="3" width="1" height="3"></rect>
                                    <rect id="Rectangle-61" fill="#E4E4E4" x="3" y="3" width="1" height="3"></rect>
                                    <rect id="Rectangle-61" fill="#C8C8C8" x="0" y="0" width="1" height="6"></rect>
                                    <rect id="Rectangle-61" fill="#C8C8C8" x="4" y="0" width="1" height="6"></rect>
                                    <rect id="Rectangle-61" fill="#D6D6D6" x="1" y="2" width="1" height="1"></rect>
                                    <rect id="Rectangle-61" fill="#D6D6D6" x="3" y="2" width="1" height="1"></rect>
                                    <rect id="Rectangle-61" fill="#C8C8C8" x="2" y="2" width="1" height="1"></rect>
                                    <rect id="Rectangle-61" fill="#C8C8C8" x="2" y="3" width="1" height="1"></rect>
                                    <rect id="Rectangle-61" fill="#C8C8C8" x="3" y="1" width="1" height="1"></rect>
                                    <rect id="Rectangle-61" fill="#C8C8C8" x="1" y="1" width="1" height="1"></rect>
                                </g>
                                <g id="l" transform="translate(20.000000, 0.000000)">
                                    <rect id="Rectangle-61" fill="#D6D6D6" x="1" y="0" width="1" height="6"></rect>
                                    <rect id="Rectangle-61" fill="#C8C8C8" x="0" y="0" width="1" height="6"></rect>
                                    <rect id="Rectangle-61" fill="#C8C8C8" x="3" y="5" width="1" height="1"></rect>
                                    <rect id="Rectangle-61" fill="#D6D6D6" x="1" y="4" width="3" height="1"></rect>
                                    <rect id="Rectangle-62" fill="#C8C8C8" x="1" y="5" width="2" height="1"></rect>
                                </g>
                            </g>
                            <g id="ic_http_black_24px" transform="translate(46.000000, 4.000000)">
                                <g id="p">
                                    <rect id="Rectangle-92" fill="#C8C8C8" x="0" y="0" width="1" height="6"></rect>
                                    <rect id="Rectangle-92" fill="#C8C8C8" x="1" y="0" width="3" height="1"></rect>
                                    <rect id="Rectangle-92" fill="#C8C8C8" x="1" y="3" width="3" height="1"></rect>
                                    <rect id="Rectangle-92" fill="#C8C8C8" x="4" y="1" width="1" height="2"></rect>
                                    <rect id="Rectangle-92" fill="#D6D6D6" x="1" y="1" width="1" height="2"></rect>
                                    <rect id="Rectangle-92" fill="#D6D6D6" x="1" y="4" width="1" height="2"></rect>
                                    <rect id="Rectangle-92" fill="#E4E4E4" x="4" y="3" width="1" height="1"></rect>
                                    <rect id="Rectangle-92" fill="#E4E4E4" x="4" y="0" width="1" height="1"></rect>
                                    <rect id="Rectangle-92" fill="#D6D6D6" x="3" y="1" width="1" height="2"></rect>
                                </g>
                                <g id="d" transform="translate(8.000000, 0.000000)">
                                    <rect id="Rectangle-77" fill="#CACACA" x="0" y="0" width="1" height="6"></rect>
                                    <rect id="Rectangle-77" fill="#CACACA" x="0" y="0" width="4" height="1"></rect>
                                    <rect id="Rectangle-77" fill="#CACACA" x="0" y="5" width="4" height="1"></rect>
                                    <rect id="Rectangle-77" fill="#CACACA" x="4" y="1" width="1" height="4"></rect>
                                    <rect id="Rectangle-77" fill="#D6D6D6" x="1" y="1" width="1" height="4"></rect>
                                    <rect id="Rectangle-77" fill="#D6D6D6" x="3" y="1" width="1" height="4"></rect>
                                    <rect id="Rectangle-77" fill="#FFFFFF" x="2" y="1" width="1" height="4"></rect>
                                    <rect id="Rectangle-77" fill="#E4E4E4" x="4" y="0" width="1" height="1"></rect>
                                    <rect id="Rectangle-77" fill="#E4E4E4" x="4" y="5" width="1" height="1"></rect>
                                </g>
                                <g id="f" transform="translate(16.000000, 0.000000)">
                                    <rect id="Rectangle-77" fill="#CACACA" x="0" y="0" width="1" height="6"></rect>
                                    <rect id="Rectangle-77" fill="#D6D6D6" x="1" y="4" width="1" height="2"></rect>
                                    <rect id="Rectangle-77" fill="#D6D6D6" x="1" y="1" width="1" height="2"></rect>
                                    <rect id="Rectangle-77" fill="#CACACA" x="1" y="0" width="3" height="1"></rect>
                                    <rect id="Rectangle-77" fill="#CACACA" x="1" y="3" width="3" height="1"></rect>
                                    <rect id="Rectangle-77" fill="#D6D6D6" x="1" y="1" width="3" height="1"></rect>
                                </g>
                            </g>
                            <path d="M34.5,2.5 L34.5,11.5" id="Line" stroke="#C8C8C8" stroke-linecap="square"></path>
                        </g>
                    </g>
                </g>
            </g>
        </g>
    </g>
</svg>