<svg width="290" height="113" viewBox="0 0 290 113" xmlns="http://www.w3.org/2000/svg"><title>slice</title><g fill="#212121" fill-rule="evenodd"><path d="M235.796 65.105c-.048-.98-.786-1.765-1.802-1.765-1.076 0-1.716.81-1.79 1.765h3.592zm.992 1.74c-.278 1.38-1.27 2.13-2.672 2.13-1.996 0-2.94-1.38-3-3.29 0-1.874 1.234-3.252 2.94-3.252 2.212 0 2.89 2.067 2.83 3.58h-4.68c-.037 1.087.58 2.054 1.946 2.054.846 0 1.44-.41 1.62-1.22h1.016zm-7.395-4.267h1.245v.906h-1.245v3.882c0 .472.132.556.773.556h.472v.907h-.786c-1.064 0-1.487-.22-1.487-1.367v-3.98H227.3v-.905h1.065v-1.874h1.028v1.874zm-2.905 6.25h-.967v-.99h-.023c-.436.774-1.137 1.136-2.032 1.136-1.644 0-2.152-.943-2.152-2.285v-4.112h1.028v4.232c0 .762.484 1.258 1.27 1.258 1.246 0 1.85-.835 1.85-1.96v-3.53h1.028v6.25zm-7.35-6.25h1.245v.906h-1.245v3.882c0 .472.133.556.774.556h.47v.907h-.785c-1.064 0-1.487-.22-1.487-1.367v-3.98h-1.064v-.905h1.064v-1.874h1.028v1.874zm-3.943 0h1.028v6.25h-1.028v-6.25zm1.028-1.125h-1.028v-1.257h1.028v1.257zm-3.278 1.125h1.245v.906h-1.245v3.882c0 .472.133.556.773.556h.472v.907h-.786c-1.064 0-1.487-.22-1.487-1.367v-3.98h-1.064v-.905h1.064v-1.874h1.028v1.874zm-6.768 4.28c.036.92.834 1.21 1.68 1.21.642 0 1.512-.146 1.512-.932 0-.798-1.017-.93-2.044-1.16-1.016-.23-2.044-.57-2.044-1.766 0-1.257 1.245-1.777 2.334-1.777 1.378 0 2.48.435 2.563 1.958h-1.03c-.07-.796-.773-1.05-1.45-1.05-.616 0-1.33.17-1.33.798 0 .737 1.09.858 2.044 1.088 1.028.23 2.043.568 2.043 1.777 0 1.488-1.39 1.97-2.66 1.97-1.403 0-2.587-.567-2.648-2.115h1.027zm-7.266-4.28h.968v.99h.024c.436-.772 1.137-1.135 2.032-1.135 1.644 0 2.152.943 2.152 2.285v4.11h-1.028V64.6c0-.763-.483-1.258-1.27-1.258-1.244 0-1.85.834-1.85 1.958v3.53h-1.027v-6.25zm-2.76-2.382h1.15v8.633h-1.15v-8.634zM189.948 60.196h1.028v8.633h-1.028v-8.634zM187.33 65.6c-.398.29-1.172.303-1.86.424-.678.12-1.26.363-1.26 1.125 0 .676.582.917 1.21.917 1.355 0 1.91-.846 1.91-1.414V65.6zm1.67 3.205c-.182.11-.41.17-.738.17-.532 0-.87-.29-.87-.968-.57.665-1.33.967-2.2.967-1.138 0-2.07-.508-2.07-1.753 0-1.414 1.053-1.716 2.117-1.922 1.136-.217 2.103-.145 2.103-.92 0-.894-.737-1.038-1.39-1.038-.87 0-1.512.266-1.56 1.184h-1.028c.06-1.547 1.258-2.09 2.648-2.09 1.125 0 2.346.253 2.346 1.716v3.216c0 .484 0 .7.326.7.084 0 .18-.01.314-.06v.8zM181.264 64.585c-.158-.786-.702-1.245-1.548-1.245-1.487 0-1.947 1.172-1.947 2.442 0 1.15.52 2.285 1.825 2.285.992 0 1.584-.58 1.717-1.523h1.052c-.23 1.523-1.185 2.43-2.757 2.43-1.91 0-2.926-1.33-2.926-3.192 0-1.874.968-3.35 2.95-3.35 1.416 0 2.553.666 2.698 2.153h-1.064zM174.5 62.578h1.026v6.25H174.5v-6.25zm1.026-1.125H174.5v-1.257h1.026v1.257zM170.21 68.067c1.38 0 1.91-1.185 1.91-2.357 0-1.234-.556-2.37-1.97-2.37-1.403 0-1.875 1.197-1.875 2.418 0 1.173.605 2.31 1.935 2.31zm2.902.762h-1.028v-.847h-.024c-.34.69-1.137.99-1.995.99-1.923 0-2.878-1.522-2.878-3.288 0-1.765.943-3.252 2.854-3.252.64 0 1.56.24 2.02.98h.024v-3.217h1.028v8.633zM165.362 65.105c-.048-.98-.786-1.765-1.802-1.765-1.075 0-1.716.81-1.79 1.765h3.592zm.992 1.74c-.278 1.38-1.27 2.13-2.672 2.13-1.996 0-2.94-1.38-3-3.29 0-1.874 1.234-3.252 2.94-3.252 2.212 0 2.89 2.067 2.83 3.58h-4.68c-.037 1.087.58 2.054 1.946 2.054.846 0 1.44-.41 1.62-1.22h1.016zM151.148 60.196h1.57l2.722 7.255 2.733-7.254h1.572v8.633h-1.09v-7.183h-.023l-2.696 7.182h-.98l-2.696-7.183h-.024v7.182h-1.088v-8.634zM231.804 54.766c.036.92.835 1.21 1.68 1.21.642 0 1.512-.146 1.512-.93 0-.8-1.015-.933-2.043-1.162-1.016-.23-2.044-.568-2.044-1.766 0-1.257 1.245-1.777 2.333-1.777 1.38 0 2.48.436 2.564 1.96h-1.028c-.073-.798-.775-1.052-1.452-1.052-.617 0-1.33.17-1.33.798 0 .737 1.088.858 2.043 1.088 1.03.23 2.044.568 2.044 1.778 0 1.487-1.39 1.97-2.66 1.97-1.402 0-2.587-.568-2.648-2.116h1.028zM229.03 53.013c-.048-.98-.786-1.765-1.8-1.765-1.077 0-1.718.81-1.79 1.765h3.59zm.992 1.74c-.278 1.38-1.27 2.13-2.672 2.13-1.995 0-2.938-1.38-3-3.29 0-1.874 1.234-3.252 2.94-3.252 2.212 0 2.89 2.07 2.83 3.58h-4.68c-.037 1.088.58 2.056 1.946 2.056.847 0 1.44-.41 1.62-1.222h1.016zM218.084 48.104h1.028v3.3h.024c.338-.75 1.22-1.063 1.97-1.063 1.645 0 2.153.944 2.153 2.286v4.11h-1.03v-4.23c0-.762-.482-1.258-1.268-1.258-1.246 0-1.85.834-1.85 1.96v3.53h-1.028v-8.634zM215.632 53.485c0-1.1-.484-2.237-1.778-2.237-1.318 0-1.85 1.076-1.85 2.273 0 1.125.41 2.383 1.766 2.383 1.354 0 1.862-1.245 1.862-2.418zm1.016 2.72c0 2.032-.932 3.072-2.903 3.072-1.172 0-2.527-.472-2.587-1.838h1.028c.048.75.943 1.014 1.62 1.014 1.342 0 1.874-.967 1.874-2.37v-.41h-.024c-.338.76-1.16 1.136-1.947 1.136-1.863 0-2.794-1.463-2.794-3.168 0-1.476.726-3.3 2.89-3.3.786 0 1.487.35 1.862 1.04h.012v-.896h.968v5.72zM209.784 56.737h-.967v-.99h-.024c-.435.773-1.137 1.136-2.032 1.136-1.643 0-2.15-.944-2.15-2.286v-4.11h1.027v4.23c0 .763.483 1.258 1.27 1.258 1.245 0 1.85-.834 1.85-1.958v-3.53h1.027v6.25zM196.168 48.104h1.148v3.712h4.547v-3.712h1.15v8.633h-1.15v-3.954h-4.547v3.954h-1.148v-8.633z"/><g><path d="M188.15 55.976c1.38 0 1.912-1.186 1.912-2.358 0-1.234-.557-2.37-1.97-2.37-1.404 0-1.875 1.197-1.875 2.418 0 1.173.604 2.31 1.934 2.31zm2.903.762h-1.028v-.847h-.023c-.34.69-1.137.992-1.996.992-1.922 0-2.878-1.523-2.878-3.29 0-1.764.943-3.25 2.854-3.25.64 0 1.56.24 2.02.978h.023v-3.216h1.028v8.634zM181.517 50.486h.967v1.318h.024c.496-1.004 1.185-1.5 2.298-1.463v1.09c-1.657 0-2.262.942-2.262 2.527v2.78h-1.027v-6.25zM178.965 53.51c-.4.29-1.173.3-1.862.422-.677.12-1.257.363-1.257 1.125 0 .677.58.92 1.21.92 1.353 0 1.91-.848 1.91-1.416v-1.05zm1.67 3.203c-.182.11-.412.17-.738.17-.533 0-.87-.29-.87-.968-.57.665-1.33.967-2.202.967-1.137 0-2.067-.507-2.067-1.753 0-1.416 1.05-1.718 2.115-1.924 1.137-.217 2.105-.145 2.105-.92 0-.893-.738-1.038-1.39-1.038-.87 0-1.513.266-1.56 1.185H175c.06-1.548 1.257-2.092 2.648-2.092 1.124 0 2.345.255 2.345 1.718v3.216c0 .484 0 .702.327.702.084 0 .18-.013.314-.06v.797zM172.408 56.737h-1.088l-1.27-4.97h-.024l-1.258 4.97h-1.112l-2.007-6.25h1.136L168.2 55.6h.024l1.258-5.114h1.124l1.306 5.115h.025l1.402-5.114h1.063l-1.995 6.25zM162.286 55.976c1.077 0 1.947-.847 1.947-2.358 0-1.524-.87-2.37-1.947-2.37-1.076 0-1.946.846-1.946 2.37 0 1.51.87 2.358 1.946 2.358m0-5.635c1.983 0 3.036 1.44 3.036 3.278 0 1.825-1.053 3.264-3.036 3.264s-3.035-1.44-3.035-3.264c0-1.838 1.053-3.277 3.036-3.277M151.123 48.104h1.15v3.712h4.546v-3.712h1.147v8.633h-1.148v-3.954h-4.548v3.954h-1.15v-8.633z"/></g><path d="M144.34 71.495h-.577v-30.41h.576v30.41z"/><g><path d="M129.983 50.407h7.034v18.437h-7.034V50.407zM137.2 48.148c.105-.348.162-.717.162-1.1 0-2.132-1.73-3.862-3.862-3.862-2.133 0-3.863 1.73-3.863 3.863 0 .38.057.75.162 1.098h7.4z"/></g><path d="M96.506 50.407h6.786v2.45h.07c1.422-2.13 3.483-2.912 6.04-2.912 1.99 0 4.12 1.03 4.974 2.877.284-.213 1.705-2.877 6.288-2.877 4.725 0 6.324 3.268 6.324 6.252v12.647h-7.035v-9.982c0-1.74-.177-3.304-2.31-3.304-1.775 0-2.38 1.385-2.38 3.304v9.982h-7.033v-9.982c0-1.74-.178-3.304-2.31-3.304-1.775 0-2.38 1.385-2.38 3.304v9.982h-7.034V50.407zM74.262 43.48h7.034v8.916h.07c1.21-1.42 2.772-2.45 5.757-2.45 3.303 0 6.323 2.023 6.323 6.25v12.648h-7.034V59.18c0-2.13-.25-3.622-2.31-3.622-1.207 0-2.806.604-2.806 3.552v9.734h-7.034V43.48zM52 43.48h7.034v8.916h.07c1.21-1.42 2.772-2.45 5.756-2.45 3.304 0 6.324 2.023 6.324 6.25v12.648H64.15V59.18c0-2.13-.25-3.622-2.31-3.622-1.208 0-2.806.604-2.806 3.552v9.734H52V43.48z"/></g></svg>