<svg width="290" height="113" viewBox="0 0 290 113" xmlns="http://www.w3.org/2000/svg">
  <title>
    Slice 1
  </title>
  <g fill="#212121" fill-rule="evenodd">
    <path d="M114.407 51.78c0 16.86 13.717 30.576 30.577 30.576S175.56 68.64 175.56 51.78s-13.715-30.577-30.576-30.577c-16.86 0-30.577 13.716-30.577 30.576m.856 0c0-16.39 13.332-29.723 29.72-29.723 16.39 0 29.723 13.333 29.723 29.722 0 16.388-13.333 29.722-29.722 29.722-16.39 0-29.72-13.334-29.72-29.723"/>
    <path d="M153.53 76.723c.01.1.12.428 0 .472-1.283-.257-1.623-.367-2.826-.457-1.112-.192-2.96.12-4.194.107-.967.034-1.945.066-2.957.19-.302-.156-.067-.494-.043-.72.11-.348.122-.527.157-.932.157-.168.35-.08.538-.157.65-.1 1.203-.674 1.36-1.28.202-.64-.022-1.35-.314-1.956-.056-.18-.303-.315-.202-.494.8-1.495.236-3.012-.033-4.473-.28-1.036-.707-2.18-.877-3.27.034-.112-.11-.37.134-.394l.092.022c.853 1.034 3.298 3.223 4.214 3.934.915.71 3.28 2.09 4.82 2.46.146.122.123.225.068.393-.743 2.573-1.096 3.9.063 6.553zm-11.442-3.9c0-.136.008-.192.11-.235h.556c.493.016 1.128.178 1.59-.3.265.01.29.326.36.57.062.34.046.557.046.863-.11.244-.234.612-.485.766-.398.19-.8.153-1.183 0-.58-.342-1-.89-.994-1.664zm.946 2.836c-.07.667-.913 1.26-1.324 1.38-.414.116-1.647.058-2.002-.065-.352-.122-1.218-1.812-1.117-2.69 0-.724.196-1.873.486-1.966.29-.092 1.06-.045 1.06-.045.322-.022.566.056.848.088.2.077.06.33.13.473.092.374.112.778.345 1.152.322.627.917 1 1.503 1.22.132.122.06.284.07.45zm-4.798 1.158c-.23.236-.358.126-.592.15-.66-.18-1.05-.468-1.238-1.217-.242-1.043-.234-2.193 0-3.258l.107-.084c.464-.053 1.17-.147 1.36-.042.19.105-.206 1.983-.206 1.983-.013.372.17 1.326.34 1.82.036.073.415.455.23.648zm7.823-22.28l-.023.64c-.058.585-.328 1.26-.878 1.584-.33-.078-.213-.47-.294-.74.21-.583.62-1.068.96-1.585.045-.034.093-.056.14-.034l.093.135zm4.768-5.172c-.34.158-.692.19-1.07.018-.094-.13-.404-.236-.282-.428.274-.442.736-.808 1.02-1.243l.133-.07c.574-.697 1.483-1.28 2.343-1.802l.52-.226c.114-.112.38-.348.483-.105.018.906-.365 1.874-1.23 2.516-.524.387-.748.312-1.216.34l-.24.435c-.057.218-.245.436-.462.566zm-1.87 8.55c-.155.09-1.514-.427-1.356-.282-.322-.35.204-.467-.993-.916l-.293.03c-.037.034-.142.087-.25-.06-.012-.182.225-.155.3-.38.43-.967.193-1.714.152-2.714l.316-.82c.6-.725.6-.83 1.008-1.224.408-.572.494-.616 1.04-1.088.09-.077.254-.138.36-.048.258.202.273.334.348.592.13.956-.45 1.612-1.145 2.128-.496.426-.967 1.09-.86 1.743l.042.043c.225-.19.51-.302.606-.538.376-.84 1.39-1.225 1.96-1.955.246-.437.095-1.198 0-1.704-.004.014.743-.353.54-.222.356.148.312.403.483.727.332.844.305 1.605-.21 2.336l-1.418 1.767c-.022.9.226 2.058-.633 2.586zm6-13.446l.098-.125c.44-.21.85-.37 1.338-.51l.585-.154c.154-.14.428-.255.586-.054.01.757-.558 1.667-1.396 2.018-.264.115-.616.152-.93.23-.078-.068-.332.075-.408-.115.047-.382.195-.95.127-1.29zm5.648-1.42c-.03.547-.758.997-1.365 1.166-.258.04-.497.024-.726.024-.06-.042-.128-.093-.12-.15.04-.26.08-.41.1-.644l.15-.11c.537-.108 1.194-.225 1.732-.368.08.017.18.01.23.083zm-17.334 10.897c1.574-2.82 3.486-5.27 5.53-7.787l2.866-3.258c2.045-2.182 4.304-4.417 6.81-6.147.313-.18.452-.55.778-.29l.294.272c.2.224.026.862-.177 1.04l-.474.392c.487.482 1.192 1.402 1.772 1.998.254.263.176.534.632.746.227.108.292.355.156.568-.404.517-1.077.44-1.607.572-1.965.44-3.555 1.002-5.73 2.057-1.742.924-3.135 1.945-4.395 3.53-.48.595-1.022 1.047-1.425 1.764-1.147 1.473-2.058 2.856-2.968 4.372-.326.478-.433.714-.888 1.147-.222.21-.42-.23-.558-.382-.017-.016-.026-.036-.037-.053-.047.007-.096-.002-.142-.034-.123-.157-.505-.225-.438-.506zm18.235-10.523c-.063.065-.14.147-.246.12-.238-.167-.147-.38-.133-.58.05-.05.057-.077.134-.077.114-.02.178.064.22.124.07.13.077.28.027.414zM135.1 75.748c-.46.01-.784-.24-.998-.784-.215-.69-.287-1.302-.138-2.013.047-.09.15-.147.215-.117l.642-.22c.214-.086.39-.117.597-.07l.13.13c-.01.376-.104.652-.112 1-.038.87-.112 1.13.14 1.96-.093.217-.28.11-.48.115zm-1.92-2.428c-.1.18-.084.3-.13.52-.055.096-.337-.037-.425-.093-.35-.187-.326-.092-.427-.415-.056-.217-.05-.47.31-.66.225-.128.673-.278.82 0 .045.19-.18.432-.147.648zm29.745-23.88c-.47-.673-.2-1.392-.257-2.11-.304-1.125-.775-1.99-1.226-3.08-.123-.314.226-.406.35-.63.202-.55.056-1.168-.192-1.696-.1-.303.26-.517.19-.83-.01-.485-.436-.81-.774-1.07-.506-.73-.742-1.113-1.37-1.775.313-.405.573-.89.56-1.304-.123-.472-.223-.91-.674-1.237-.718-.406-1.45.224-2.02.55-.16.112-.24.225-.464.203l-.448-.16c-.147.167-.33.344-.553.52l.7.284c-.024.153-1.59 1.526-1.59 1.526-.005.003-2.826 2.79-2.826 2.79 0 .004-.808.822-.808.822l-2.51 2.893c-1.313 1.52-3.248 4.016-4.415 5.843-.606.836-1.21 1.765-1.774 2.642-.06.098-.176.09-.358.07-.123-.016-.25-.03-.366.01-.64.07-1.102.283-1.598.733-.644.758-.968 1.676-.968 2.667 0 .682.156 1.4.47 2.12-.133.387-.436.728-.708 1.03l-.15.17-.194.19c-.125.12-.268.254-.372.386-.03.07-.034.15.09.21.656-.133 1.03-.58 1.392-1.01 0 0 .23-.264.26-.302.054-.01.1.02.177.085.04.036.087.07.14.095 0 .03-.008.22-.01.265-1.405 1.388-2.55 2.172-4.047 3.05l-.25.147.29.03c.584.057 1.14-.27 1.674-.588l.645-.356c.594-.304 1.146-.77 1.68-1.22l.536-.442c.05.007.107.07.15.123.063.074.502.944.53.996-.102.414-.146.827-.146 1.24 0 .9.196 1.795.386 2.672.19.863.384 1.756.384 2.632 0 .058 0 .114-.003.173 0 .27-.297.63-.545.742-.56.095-1.24.1-1.96.11-.88.005-1.793.013-2.494.203-.225.027-.485.1-.738.17-.248.07-.504.143-.743.176l-.137.083c-.08.05-.18.11-.203.23-.003.098.028.17.078.223.048.05.11.073.173.068.213 0 .45-.086.68-.17.16-.058.33-.12.483-.146 1.464-.25 3.068-.2 4.156-.112.535-.01 1.417-.026 1.734-.79.115-.307.154-.595.154-.87 0-.306-.047-.6-.095-.9l-.097-.742c-.063-.453-.16-.903-.253-1.34-.163-.776-.334-1.574-.334-2.38 0-.165.008-.33.023-.494.1-.055.183.012.25.063.074.06.152.116.237.138.097.075.207.095.307.108.14.02.215.035.26.145.062.71.307 1.442.544 2.153.164.488.334.994.443 1.487.192.863.388 1.74.388 2.603 0 .514-.07 1.024-.25 1.525-.374.685-1.196.687-1.988.692h-.238l-1.944-.12c-1.668-.12-3.392-.244-5.16.042l-.397.043c-.218.033-.424.06-.645.007-.082-.066-.148-.18-.148-.3.338-.812.497-1.442.497-2 0-.452-.105-.855-.31-1.21-.46-.876-.96-1.484-1.58-1.91-.76-.76-1.41-1.43-1.986-2.087-.336-.043-.545-.11-.567-.117l-.412.39c.44.417.843.833 1.338 1.282.752.406 1.36 1.135 1.9 1.63.65.763.81 1.573.672 2.472-.09 1.066-1.065 1.53-1.73 2.237-.268.507-.438 1.113-.068 1.585.238.63 1.248.516 1.37 1.034.28 1.14 2.26 1.8 2.647 1.827.383.027.782.452.782.452.787.572 1.82.434 2.364.35.54-.08 1.512.357 2.12.268.91-.36 1.652-.19 2.596-.27 2.967.046 6.337-.023 9.37.36.564-.068 1.237.37 1.767.102.133-.227.03-.416 0-.608-1.45-2.28-1.67-4.84-.846-7.326l.548.033c1.967.213 3.757-.042 5.755-1.2 1-.55 1.527-1.84 1.482-2.772-.035-.606-.245-1.322-.142-1.963.034-.286.223-.72.47-.857.106-.058.473-.308.59-.63.19-.52-.22-.764-.337-.835.32-.13.628-.78.335-1.284-.188-.2-.406-.99-.43-1.25-.067-.37-.078-.752.27-.99.788-.414 1.528-.515 2.35-.875.56-.236.852-.82.83-1.348l-.337-1.146c-.81-1.865-1.72-3.47-2.383-5.35zm-.818 8.727c-.44.44-.328.937-.15 1.488.354.698.22.626-.272.79-1.152.385-1.14 1.646-2.526 1.434-.08.023-.404-.14-.212.093.15.177.21.07.504.106.494.02.68-.18 1.025-.417.494-.415.436-.573 1.044-.865.146-.034.505-.14.705-.07.136.124.14.127.16.24-.078.337-.57.617-.758.735.258.19.743.51.664.78-.11.176-.103.206-.3.3-.274.134-.823.113-1.34-.27-.078.024-.164-.152-.385.058.504.52 1.208.4 1.314.508.105.104-.377.73-.4.866-.337.898.077 1.726-.103 2.658-.11.73-.33 1.078-.968 1.538-1.174.812-1.996 1.047-3.313 1.258-3.45.236-5.627-.948-8.11-2.803-2.486-1.856-3.436-2.843-4.212-3.887-.01-.427.303-.753.035-1.214-.225.078-.202.37-.338.54-.192.27-.652.47-.978.438-1.022-.348-1.08-1.55-1.718-2.236-1.372-1.35-1.754-3.294-1.023-4.923.26-.505.718-.99 1.236-1.168.638-.1 1.392-.1 1.81.517.49.47.797 1.235.92 1.91.2.327-.046.697.29.967.585.055 1.09.2 1.653-.158.416.054.473.517.787.718l.562.338c.596.246 1.36.246 1.865-.192.945-.966.738-1.96 1.065-3.026.9-.797 1.497-1.94 1.487-3.053-.058-.686-.304-1.393-.71-2.078.067-.406.292-.71.427-1.07.114-.067.26-.067.382-.09 1-.212 1.91-1.123 2.303-2.078l.09-.09c1.146-.078 2.574-.484 3.237-1.686.135-.517.72-.135 1.078-.258.606-.034 1.214-.37 1.674-.765.136-.045.236.103.316.168.27.9.764 1.767 1.044 2.678.348.684.473 1.336.348 2.033.147 1.068.754 2.068 1.18 3.147.428 1.136 1.09 2.282 1.574 3.45.09.47.292.844 0 1.225-.833.775-2.01.787-2.967 1.415z"/>
    <path d="M159.96 47.795c.157.203.26.382.135.574-.29.022-.338-.35-.584-.474-.403-.2-.763.013-1.167.114-1.023.437-1.877 1.314-2.866 1.775-.123 0-.236-.012-.315-.1.168-.17.438-.204.652-.34 1.024-.673 2.012-1.728 3.293-1.92.337-.02.64.102.854.37M158.98 51.523c-.16.234-.41.03-.632.057-.506-.057-1.36.06-1.918-.01-.085-.047-.148-.136-.096-.213.086-.14.317-.148.465-.257.61-.38 1.252-.745 1.947-.91.126-.02.232.087.254.175.084.324.032.844-.02 1.158m.902-1.996c-.078-.248-.067-.652-.37-.71-.067.16 0 .328-.067.474-.09.112-.248.247-.428.202-1.237.08-2.157 1.17-3.213 1.73-.36.203-.765.316-1.147.417-.035.056-.022.134.033.167 1.17.125 2.326.237 3.485.36l1.29-.147c.035-.168-.166-.314-.134-.506.15-.526.192-1.1.046-1.595.103-.27.484-.07.506-.393M160.535 55.32c.042-.06.088-.126.144-.13.073.026.11.06.12.195-.008.217-.064.445-.122.688-.067.274-.134.555-.134.83 0 .123.012.244.046.363.163.202.413.248.713.144.006-.002.513-.292.513-.292.44-.264.856-.512 1.627-.71.018-.003.023.002.026.006.01.014.016.042.016.08 0 .065-.02.155-.05.23-.03.012-.743.33-.743.33-.56.245-1.14.498-1.685.81-.16.034-.31-.053-.453-.138l-.034-.02c-.207-.284-.273-.557-.273-.83 0-.248.054-.493.11-.746.05-.234.103-.478.114-.734.02-.02.065-.076.065-.076M143.027 55.09c.405.83-.024 1.616 0 2.483.066.245.55.28.405.573-.115.078-.27.1-.394.01-.226-.146-.304-.257-.36-.517-.057-.764.55-1.652.01-2.37-.156-.158-.382-.316-.605-.327-.484.09-.732.606-.9.987-.258 1.012-.326 2.08.562 2.89.517.302 1.146.628 1.18 1.28.078.114.236.225.36.158.157-.01.18-.46.403-.247l.068.16c-.057.177-.11.493-.404.504-.146.033-.304-.046-.427-.135-.316-.326-.067-.822-.597-1.035-.876-.27-1.448-1.192-1.54-2.057-.055-.83-.02-1.742.7-2.47.28-.216.65-.35 1.01-.238.203.034.438.18.53.35M132.198 61.51c1.17-.542 2.504-.478 3.007-.43-.144.464-.628 1.667-1.958 2.318-1.333.653-2.475.498-2.892.407.154-.462.67-1.75 1.843-2.295m-.158-.343c-1.6.742-2.09 2.647-2.11 2.73l-.042.167.164.056c.064.02 1.55.508 3.362-.383 1.828-.896 2.203-2.705 2.22-2.783l.036-.192-.192-.03c-.076-.014-1.867-.295-3.438.435M133.79 57.92c1.164-.526 2.435-.46 2.922-.407-.15.452-.646 1.605-1.973 2.24-1.323.63-2.457.51-2.89.43.184-.47.77-1.734 1.94-2.263m-.155-.346c-1.604.724-2.196 2.612-2.22 2.69l-.053.183.178.055c.062.02 1.543.46 3.362-.408 1.835-.878 2.226-2.626 2.24-2.7l.04-.192-.19-.035c-.072-.012-1.78-.305-3.357.407M135.87 54.463c1.158-.51 2.365-.44 2.837-.383-.156.44-.664 1.54-1.99 2.158-1.31.608-2.432.524-2.885.455.217-.48.867-1.717 2.037-2.23m-.154-.348c-1.604.705-2.3 2.574-2.328 2.654l-.07.19.196.056c.063.017 1.54.415 3.36-.435 1.846-.857 2.25-2.543 2.267-2.616l.043-.19-.19-.038c-.07-.014-1.69-.32-3.277.38M137.934 51.047c1.156-.494 2.298-.418 2.753-.362-.163.43-.68 1.483-2.005 2.083-1.294.586-2.41.535-2.88.475.252-.487.967-1.698 2.132-2.196m-.15-.348c-1.606.686-2.403 2.538-2.436 2.615l-.086.203.215.054c.06.016 1.534.37 3.362-.46 1.85-.84 2.266-2.464 2.284-2.533l.047-.19-.19-.042c-.065-.014-1.6-.33-3.195.35M140.792 47.63c1.15-.48 2.23-.4 2.67-.338-.17.417-.7 1.42-2.02 2.002-1.29.57-2.394.545-2.873.497.287-.494 1.062-1.68 2.222-2.16m-.144-.352c-1.61.67-2.51 2.505-2.547 2.582l-.104.216.234.05c.062.015 1.53.322 3.363-.485 1.86-.82 2.29-2.383 2.308-2.45l.05-.188-.19-.045c-.06-.014-1.512-.342-3.112.32"/>
    <path d="M143.945 44.33c1.142-.46 2.16-.38 2.585-.314-.18.407-.72 1.36-2.04 1.925-1.276.55-2.37.554-2.86.52.322-.505 1.16-1.663 2.315-2.13m-.142-.35c-1.613.652-2.614 2.47-2.657 2.545l-.122.228.255.05c.06.01 1.525.274 3.36-.513 1.867-.8 2.314-2.304 2.33-2.367l.054-.187-.187-.05c-.058-.013-1.425-.354-3.034.295"/>
    <path d="M147.31 41.216c1.132-.443 2.093-.362 2.5-.296-.186.395-.737 1.302-2.054 1.85-1.258.525-2.343.56-2.85.538.36-.513 1.258-1.643 2.404-2.092m-.14-.353c-1.615.632-2.717 2.432-2.762 2.51l-.146.238.278.046c.06.01 1.522.23 3.362-.537 1.874-.782 2.334-2.222 2.354-2.283l.055-.185-.184-.052c-.053-.015-1.336-.37-2.955.263"/>
    <path d="M150.812 38.34c1.122-.427 2.025-.345 2.415-.275-.196.38-.76 1.242-2.07 1.773-1.247.504-2.32.564-2.837.554.4-.517 1.35-1.62 2.492-2.053m-.135-.355c-1.62.616-2.823 2.398-2.874 2.473l-.17.255.304.04c.06.006 1.517.183 3.362-.564 1.88-.763 2.356-2.14 2.373-2.2l.06-.18-.182-.06c-.05-.015-1.247-.382-2.873.235"/>
    <path d="M154.368 35.76c1.11-.407 1.958-.324 2.33-.252-.204.368-.777 1.185-2.085 1.698-1.23.484-2.288.567-2.82.57.438-.52 1.44-1.595 2.575-2.015m-.13-.354c-1.624.6-2.928 2.365-2.983 2.44l-.194.267.33.034c.06.006 1.512.138 3.363-.59 1.888-.74 2.375-2.057 2.397-2.114l.062-.178-.18-.063c-.044-.017-1.16-.397-2.794.204M128.58 60.988c0-.058.002-.114.005-.173.085-1.3.788-2.447 1.072-2.86.328.337 1.108 1.286 1.108 2.684 0 .053 0 .108-.005.163-.064 1.49-.752 2.425-1.035 2.748-.32-.342-1.145-1.34-1.145-2.562zm.9-3.44c-.047.06-1.158 1.505-1.274 3.243-.115 1.768 1.332 3.12 1.395 3.175l.128.118.13-.118c.048-.043 1.192-1.118 1.28-3.147.09-2.042-1.328-3.248-1.39-3.297l-.15-.126-.117.155z"/>
    <path d="M130.646 57.136c0-.112.006-.227.02-.34.023-.2.06-.39.108-.566.276-1.028.85-1.83 1.108-2.155.27.323.863 1.163.863 2.362 0 .14-.01.287-.027.44-.172 1.433-.886 2.324-1.186 2.642-.268-.353-.886-1.285-.886-2.384zm1.09-3.48c-.037.043-.94 1.04-1.328 2.475-.052.195-.092.404-.117.618-.208 1.715 1.03 3.12 1.084 3.18l.123.138.14-.12c.05-.04 1.22-1.055 1.457-3.026.238-1.99-1.034-3.22-1.087-3.273l-.14-.13-.13.14z"/>
    <path d="M132.97 53.563c0-.177.014-.362.05-.546.035-.202.08-.38.134-.542.342-1.012.95-1.744 1.224-2.04.217.306.643 1.035.643 2.037 0 .226-.02.465-.073.718-.277 1.377-1.016 2.224-1.336 2.538-.21-.357-.64-1.197-.64-2.165zm1.296-3.556c-.04.037-.988.922-1.47 2.347-.06.18-.112.377-.15.598-.302 1.658.73 3.117.774 3.18l.113.16.157-.122c.05-.04 1.244-.995 1.63-2.906.39-1.936-.738-3.192-.785-3.245l-.128-.142-.14.13z"/>
    <path d="M135.527 50.28c0-.26.026-.53.092-.8.048-.204.1-.374.163-.524.41-.992 1.048-1.655 1.34-1.923.16.276.45.882.45 1.702 0 .307-.04.647-.145 1.007-.378 1.317-1.14 2.122-1.482 2.433-.15-.343-.42-1.066-.42-1.894zm1.522-3.683c-.043.032-1.036.803-1.618 2.217-.068.166-.127.355-.183.576-.39 1.603.43 3.114.463 3.18l.105.186.172-.126c.05-.036 1.27-.93 1.803-2.784.54-1.88-.44-3.162-.48-3.215l-.115-.147-.15.114z"/>
    <path d="M138.283 47.33c0-.37.043-.765.165-1.155.063-.2.124-.36.19-.5.48-.98 1.15-1.576 1.457-1.815.116.24.294.713.294 1.352 0 .387-.065.83-.25 1.317-.476 1.253-1.26 2.02-1.628 2.324-.09-.305-.23-.87-.23-1.525zm1.778-3.91c-.043.027-1.075.685-1.76 2.087-.077.16-.145.335-.213.555-.48 1.55.127 3.11.153 3.176l.086.215.195-.127c.053-.037 1.295-.872 1.974-2.662.69-1.825-.138-3.132-.174-3.186l-.102-.157-.157.1z"/>
    <path d="M141.21 44.75c0-.502.063-1.09.277-1.65.075-.193.144-.345.22-.478.547-.962 1.247-1.493 1.57-1.702.07.198.168.54.168 1.012 0 .448-.09 1.002-.38 1.614-.573 1.202-1.383 1.92-1.772 2.218-.04-.233-.084-.59-.084-1.015zm2.074-4.275c-.045.023-1.115.568-1.905 1.96-.087.15-.165.318-.247.53-.57 1.492-.17 3.1-.152 3.17l.064.246.218-.13c.054-.032 1.32-.81 2.143-2.54.84-1.767.16-3.098.132-3.152l-.087-.165-.166.082z"/>
    <path d="M144.268 42.606c0-.594.072-1.525.454-2.354.085-.18.166-.33.25-.458.618-.944 1.345-1.412 1.68-1.59.038.15.075.375.075.672 0 .497-.11 1.17-.542 1.915-.666 1.148-1.498 1.82-1.91 2.11-.004-.086-.007-.182-.007-.294zm2.44-4.847c-.048.017-1.15.45-2.053 1.825-.095.145-.184.31-.277.51-.66 1.435-.466 3.093-.457 3.162l.034.276.245-.133c.055-.03 1.34-.748 2.312-2.42.988-1.704.462-3.058.438-3.114l-.07-.173-.173.066z"/>
    <path d="M148.14 37.63c.09-.17.182-.312.278-.442.69-.924 1.447-1.33 1.796-1.48.01.088.02.194.02.33 0 .51-.123 1.323-.746 2.222-.755 1.09-1.612 1.724-2.047 2.002.042-.554.182-1.69.7-2.633zm2.17-2.363c-.046.014-1.18.336-2.195 1.696-.108.14-.207.3-.31.483-.753 1.38-.76 3.087-.76 3.16l.002.3.272-.132c.054-.028 1.367-.687 2.48-2.3 1.136-1.644.76-3.02.744-3.076l-.05-.18-.183.05z"/>
    <path d="M152.013 34.803c.765-.906 1.55-1.253 1.91-1.374.004.008.004.014.004.024 0 .437-.114 1.42-.984 2.495-.84 1.04-1.726 1.632-2.184 1.897.12-.674.465-2.116 1.253-3.044zm2.053-1.807c-.048.01-1.212.226-2.343 1.56-1.124 1.33-1.39 3.524-1.4 3.616l-.037.328.3-.134c.058-.025 1.395-.627 2.653-2.18 1.28-1.582 1.055-2.977 1.047-3.034l-.035-.188-.186.032z"/>
    <path d="M144.984 25.76c4.245 0 8.435 1.05 12.16 3.024l-3.03 3.455c-2.865-1.34-5.934-2.028-9.13-2.028-11.892 0-21.567 9.675-21.567 21.567 0 5.304 1.8 10.143 5.19 14.03-.195.45-.54 1.438-.54 2.745 0 1.084.25 2.382 1.012 3.763-6.298-5.017-10.115-12.643-10.115-20.54 0-14.347 11.67-26.02 26.02-26.02zm-13.94 49.013l.332.207.238-.31c.066-.088.094-.17.094-.247 0-.195-.17-.35-.264-.437l-.46-.444c-1.645-1.867-2.086-3.64-2.086-5 0-1.506.538-2.51.582-2.588l.148-.266-.203-.227c-3.372-3.76-5.152-8.492-5.152-13.68 0-11.42 9.29-20.713 20.71-20.713 3.177 0 6.223.7 9.056 2.078l.293.142 4.163-4.748-.462-.26c-3.968-2.21-8.48-3.376-13.05-3.376-14.82 0-26.874 12.057-26.874 26.875 0 9.157 4.956 17.966 12.935 22.993z"/>
    <path d="M154.41 32.377c-2.95-1.437-6.12-2.164-9.426-2.164-11.892 0-21.567 9.673-21.567 21.566 0 5.403 1.857 10.332 5.372 14.25l.368.412 1.64-2.478-.088-.1c-.146-.02-.268-.04-.355-.06.022-.066.055-.155.094-.255-.13-.154-.26-.308-.382-.465-.132.21-.257.367-.343.466-.32-.342-1.145-1.34-1.145-2.562 0-.04.002-.078.004-.117-1.534-2.7-2.312-5.744-2.312-9.09 0-10.32 8.394-18.713 18.712-18.713 2.533 0 4.976.493 7.274 1.466.245-.254.49-.456.714-.61-2.515-1.13-5.197-1.71-7.988-1.71-10.79 0-19.568 8.777-19.568 19.566 0 4.677 1.46 8.79 4.32 12.24l-.665 1.006c-3.13-3.69-4.796-8.25-4.796-13.247 0-11.422 9.29-20.713 20.71-20.713 3.035 0 5.947.646 8.672 1.905l-.336.732c.25-.142.46-.227.604-.275.003.008.003.013.003.025 0 .317-.062.927-.432 1.65l.096.05 1.2-2.596-.38-.183zM154.22 28.15l-2.06 2.607c.187.065.375.133.562.2l2.048-2.586c-.183-.076-.366-.15-.55-.22M150.184 26.948l-1.2 2.978c.19.034.377.07.565.11l1.197-2.964c-.187-.045-.375-.084-.563-.124M145.384 26.412l-.295 3.155c.19 0 .38.004.568.01l.296-3.15c-.19-.007-.38-.013-.57-.015M140.707 26.768l.6 3.104c.186-.03.374-.06.56-.087l-.598-3.107c-.19.028-.376.058-.563.09"/>
    <path d="M136.17 27.986l1.417 2.848c.18-.065.362-.127.544-.184l-1.422-2.857c-.18.062-.362.126-.54.193M131.864 30.07l2.118 2.416c.168-.095.337-.19.507-.28l-2.13-2.432c-.167.096-.332.195-.496.295M127.952 32.987l2.674 1.858c.15-.128.302-.254.455-.377l-2.69-1.87c-.148.128-.294.258-.438.39M124.625 36.652l3.07 1.196c.126-.156.254-.31.383-.46l-3.095-1.205c-.12.155-.24.31-.358.47M122.055 40.92l3.306.46c.096-.178.193-.356.292-.532l-3.335-.465c-.09.177-.177.357-.262.536M120.372 45.6l3.37-.32c.06-.198.123-.395.19-.59l-3.406.326c-.054.195-.105.39-.154.585M119.642 50.506l3.26-1.133c.023-.21.05-.42.078-.63l-3.3 1.148c-.015.205-.027.41-.038.616M119.895 55.458l2.944-1.934c-.017-.216-.032-.434-.042-.652l-2.99 1.965c.025.207.054.414.087.62M121.15 60.304l2.39-2.633c-.06-.218-.112-.44-.164-.662l-2.442 2.688c.07.204.142.406.216.608M123.4 64.935l1.69-3.217c-.105-.21-.21-.42-.31-.63l-1.722 3.276c.11.19.225.382.34.57M126.28 68.794l.904-3.728c-.15-.196-.297-.396-.44-.598l-.92 3.804c.15.176.302.35.457.522M153.798 35.34c.078.052.156.103.232.155.07-.03.137-.063.208-.09.083-.03.165-.056.246-.082-.176-.115-.34-.244-.496-.38-.054.128-.117.26-.19.398"/>
    <g>
      <path d="M186.797 91.326v-.12h.44v-3.29h-.362c-.502 0-.554.375-.656.9h-.137l.058-1.02h2.727l.037 1.02h-.138c-.058-.504-.233-.9-.784-.9h-.234v3.29h.44v.12h-1.39zM182.544 91.326v-.12h.428v-3.29h-.428v-.12h2.58l.043.935h-.094c-.165-.64-.256-.815-.917-.815h-.67v1.54c.47-.005.68-.02.734-.55h.118v1.3h-.113c-.037-.542-.248-.62-.74-.62v1.622h.455v.12h-1.396zM179.236 91.326v-.12h-.455l.376-1.164h1.01l.364 1.165h-.427v.12h1.33v-.12h-.37l-1.087-3.457h-.207l-1.147 3.457h-.418v.12h1.03zm-.032-1.43l.465-1.432h.01l.433 1.432h-.91zM176.202 89.43v-1.515h-.413v-.12h1.337v.12h-.412v3.292h.412v.12h-1.338v-.12h.412v-1.624h-1.522v1.624h.412v.12h-1.34v-.12h.414v-3.292h-.413v-.12h1.34v.12h-.413v1.515h1.522zM172.39 88.732l-.118.006c-.11-.5-.386-.897-.94-.897-.34 0-.6.234-.706.43-.206.383-.217 1.132-.217 1.422 0 .907.11 1.56.947 1.56.513 0 .836-.426.98-.888h.127v.962h-.143l-.148-.22c-.25.21-.535.294-.834.294-.98 0-1.532-.848-1.532-1.86 0-1.04.806-1.817 1.554-1.817.318 0 .526.097.78.277l.174-.168.077.01v.89zM166.47 91.344h-.072v-.915h.1c.143.48.507.85 1.017.85.456 0 .89-.3.89-.765 0-.31-.072-.453-.482-.615-.195-.075-1.017-.344-1.097-.397-.307-.19-.428-.512-.428-.807 0-.216.064-.402.216-.602.16-.205.42-.37.823-.37.243 0 .588.15.69.226l.203-.154.076.008v.82h-.11c-.116-.438-.426-.783-.897-.783-.36 0-.754.25-.754.647 0 .878 2.007.313 2.007 1.744 0 .723-.453 1.17-1.145 1.17-.296 0-.593-.078-.81-.293l-.227.237zM162.702 91.326v-.12h.434v-3.29h-.434v-.12h1.433v.12h-.487v3.29h.946c.435 0 .64-.53.704-.865h.1l-.058.986h-2.638zM159.026 91.326v-.12h.433v-3.29h-.434v-.12h1.434v.12h-.487v3.29h.947c.434 0 .64-.53.703-.865h.1l-.058.986h-2.64zM155.028 91.326v-.12h.466v-3.29h-.466v-.12h2.684v.86h-.117c-.09-.63-.417-.74-.898-.74h-.692v1.522c.538 0 .708-.005.782-.565h.118v1.336h-.118c-.032-.57-.256-.64-.782-.644v1.64h.643c.7 0 .93-.084 1.07-.87h.137l-.07.99h-2.757zM151.774 91.344h-.073v-.915h.1c.144.48.508.85 1.018.85.456 0 .89-.3.89-.765 0-.31-.072-.453-.48-.615-.197-.075-1.02-.344-1.1-.397-.306-.19-.427-.512-.427-.807 0-.216.064-.402.217-.602.158-.205.418-.37.822-.37.242 0 .588.15.69.226l.203-.154.076.008v.82h-.11c-.117-.438-.428-.783-.898-.783-.36 0-.753.25-.753.647 0 .878 2.007.313 2.007 1.744 0 .723-.454 1.17-1.146 1.17-.296 0-.592-.078-.808-.293l-.228.237zM147.682 91.326v-.12h.467v-3.29h-.468v-.12h2.685v.86h-.118c-.09-.63-.418-.74-.898-.74h-.69v1.522c.535 0 .705-.005.78-.565h.117v1.336h-.118c-.032-.57-.255-.64-.78-.644v1.64h.642c.697 0 .93-.084 1.067-.87h.138l-.068.99h-2.758zM146.14 87.833l.084.003v.904h-.12c-.105-.523-.487-.9-1.077-.9-.34 0-.6.23-.706.423-.205.385-.216 1.138-.216 1.428 0 .91.112 1.59.95 1.59.726 0 .763-.486.747-1.082h-.513v-.128h1.434v.128h-.322c-.037.586-.29 1.202-1.366 1.202-.98 0-1.532-.848-1.532-1.86 0-1.046.806-1.817 1.553-1.817.372 0 .674.108.902.315l.185-.205zM142.296 89.5h-1.293v.5h1.293v-.5zM138.048 91.326h-1.33v-.12h.408v-3.29h-.407v-.12h1.328v.12h-.41v3.29h.41v.12zm.61-3.41v-.12h1.053v.12h-.39l-1.224 1.32 1.61 1.97h.25v.12h-1.346v-.12h.424l-1.34-1.718c-.018-.026.003-.052.04-.09l1.4-1.483h-.476zM135.36 88.732l-.118.006c-.112-.5-.388-.897-.943-.897-.34 0-.598.234-.704.43-.207.383-.217 1.132-.217 1.422 0 .907.11 1.56.946 1.56.513 0 .836-.426.98-.888h.127v.962h-.142l-.148-.22c-.25.21-.537.294-.834.294-.982 0-1.532-.848-1.532-1.86 0-1.04.804-1.817 1.553-1.817.318 0 .524.097.78.277l.172-.168.078.01v.89zM128.888 87.915h-.413v-.12h1.03l1.5 2.558h.01v-2.438h-.412v-.12h.976v.12h-.408V91.4h-.136l-1.982-3.376h-.01v3.183h.406v.12h-.975v-.12h.413v-3.292zM125.16 91.326v-.12h-.454l.375-1.164h1.01l.364 1.165h-.428v.12h1.333v-.12h-.37l-1.09-3.457h-.206l-1.146 3.457h-.418v.12h1.03zm-.03-1.43l.464-1.432h.01l.434 1.432h-.91zM120.526 91.326v-.12h.433v-3.29h-.434v-.12h1.432v.12h-.486v3.29h.947c.432 0 .638-.53.702-.865h.1l-.058.986h-2.638zM116.83 87.915h.417v3.292h-.454v.12h1.438v-.12h-.47V89.73h.254c1.112 0 1.507-.562 1.507-.996 0-.465-.304-.938-1.284-.938h-1.407v.12zm.93 0h.148c.715 0 1.054.058 1.054.8 0 .584-.16.897-1.02.897h-.183v-1.697zM114.39 89.5h1.32v.5h-1.32v-.5zM111.102 91.326h-1.09v-.12h.443l.933-1.55-1.006-1.74h-.37v-.12h1.365v.12h-.39l.745 1.242.752-1.243h-.434v-.12h1.048v.12h-.424l-.842 1.397 1.106 1.895h.355v.12h-1.37v-.12h.423l-.857-1.423-.848 1.423h.46v.12zM106.788 91.326v-.12h-.455l.375-1.164h1.01l.365 1.165h-.43v.12h1.333v-.12h-.37l-1.09-3.457h-.205l-1.145 3.457h-.417v.12h1.03zm-.032-1.43l.464-1.432h.012l.433 1.432h-.91zM101.015 87.915v-.12h1.056l.747 2.6h.01l.777-2.6h1.053v.12h-.4v3.292h.4v.12h-1.322v-.12h.407V87.98h-.01l-1.027 3.346h-.137l-.99-3.347h-.01v3.227h.397v.12h-.95v-.12h.398v-3.292h-.398z"/>
      <path d="M101 86.25h87.968" stroke="#000" stroke-width=".5"/>
    </g>
  </g>
</svg>
