<svg width="290" height="113" viewBox="0 0 290 113" xmlns="http://www.w3.org/2000/svg">
  <title>
    Slice 1
  </title>
  <g fill="#212121" fill-rule="evenodd">
    <path d="M246.836 61.46c-2.343 0-3.363-.586-3.363-3.106V49.33h-2.412v-2.08h2.413v-4.24h2.337v4.24h2.815v2.08h-2.815v8.804c0 1.062.293 1.278 1.754 1.278h1.06v2.047h-1.788zM234.852 61.79c-3.178 0-5.882-1.28-6.03-4.825h2.34c.07 2.12 1.826 2.777 3.836 2.777 1.46 0 3.435-.33 3.435-2.12 0-1.825-2.303-2.08-4.64-2.628-2.302-.513-4.64-1.316-4.64-4.02 0-2.885 2.812-4.054 5.296-4.054 3.105 0 5.662.986 5.807 4.456h-2.338c-.147-1.827-1.57-2.448-3.324-2.448-1.423 0-2.996.44-2.996 1.863 0 1.68 2.484 2.01 4.64 2.485 2.338.55 4.638 1.278 4.638 4.02 0 3.398-2.994 4.494-6.026 4.494M225.396 61.455v-2.08c-1.02 1.572-2.63 2.414-4.6 2.414-3.73 0-4.97-2.158-4.97-5.117V47.25h2.338v9.606c0 1.9 1.094 2.886 2.922 2.886 2.778 0 4.165-1.898 4.165-4.46V47.25h2.34v14.21l-2.194-.005zM209.507 55.467v5.992h-2.34V47.25h2.19v3.028s.04 0 .04-.033c1.13-1.938 2.74-2.995 5.224-2.995v2.482c-3.763 0-5.113 2.156-5.113 5.735M203.587 61.46c-2.337 0-3.363-.586-3.363-3.106V49.33h-2.41v-2.08h2.41v-4.24h2.34v4.24h2.812v2.08h-2.813v8.804c0 1.062.293 1.278 1.754 1.278h1.06v2.047h-1.79zM196.867 61.203c-.038-7.345-3.29-11.543-10.595-11.543-6.174 0-10.194 4.494-10.194 10.01 0 6.317 4.458 9.9 10.52 9.9 4.385 0 8.33-1.865 9.83-5.883h-6.65c-.62.913-1.936 1.353-3.106 1.353-2.337 0-3.618-1.57-3.8-3.837h13.995zm-6.833-3.654h-7.124c.364-2.193 1.643-3.362 3.688-3.362 2.083 0 3.436 1.462 3.436 3.36z"/>
    <path d="M169.138 69.096V58.828c0-1.79-.183-3.507-2.448-3.507-1.9 0-2.522 1.502-2.522 3.508v10.268h-7.16V58.828c0-1.79-.146-3.507-2.447-3.507-1.898 0-2.52 1.502-2.52 3.508v10.268h-7.124V50.134h6.904v2.56h.112c1.496-2.232 3.614-3.034 6.247-3.034 2.006 0 4.2 1.058 5.112 3.033.146-.147.33-.403.695-.77.072-.108.18-.217.29-.328.988-.95 2.703-1.935 5.517-1.935 4.823 0 6.467 3.323 6.467 6.393v13.043h-7.122z"/>
    <path d="M145.107 59.594c0-5.26-3.216-9.934-10.34-9.934-7.12 0-10.337 4.674-10.337 9.934 0 5.262 3.216 9.976 10.338 9.976 7.123 0 10.34-4.714 10.34-9.976m-7.123 0c0 2.05-.4 4.824-3.217 4.824-2.813 0-3.214-2.775-3.214-4.824 0-2.045.4-4.784 3.214-4.784 2.816 0 3.217 2.74 3.217 4.784"/>
    <path d="M115.598 69.57c-5.954 0-10.19-3.397-10.19-9.938 0-5.99 4.38-9.972 10.41-9.972 4.822 0 9.353 2.446 9.498 8.147h-6.794c0-1.9-1.025-2.998-2.704-2.998-2.703 0-3.288 2.522-3.288 4.822 0 3.034.84 4.787 3.143 4.787 1.863 0 2.85-1.28 3.03-2.814h6.832c-.73 5.113-4.822 7.964-9.937 7.964"/>
    <path d="M98.477 69.095h7.12V43.008h-7.12v26.087zM89.82 69.095h7.125V43.008H89.82v26.087z"/>
    <path d="M90.5 61.203c-.036-7.345-3.29-11.543-10.597-11.543-6.174 0-10.192 4.494-10.192 10.01 0 6.317 4.46 9.9 10.524 9.9 4.38 0 8.328-1.865 9.826-5.883h-6.65c-.62.913-1.935 1.353-3.105 1.353-2.34 0-3.617-1.57-3.8-3.837H90.5zm-6.834-3.654h-7.124c.365-2.193 1.646-3.362 3.692-3.362 2.082 0 3.432 1.462 3.432 3.36z"/>
    <path d="M64.913 50.134l-2.665 11.8H62.1l-2.556-11.8h-6.72l-2.413 11.8h-.11l-2.848-11.8H40l5.918 18.962h7.344l2.85-11.728h.11l2.774 11.728h7.344l6.026-18.962h-7.453z"/>
  </g>
</svg>
