<?xml version="1.0" encoding="UTF-8"?>
<svg viewBox="0 0 136 70" version="1.1" xmlns="http://www.w3.org/2000/svg" xmlns:xlink="http://www.w3.org/1999/xlink">
    <!-- Generator: Sketch 43.2 (39069) - http://www.bohemiancoding.com/sketch -->
<!--  David woz 'ere  -->
    <title>elife-logo</title>
    <desc>Created with Sketch.</desc>
    <defs>
        <polygon id="path-1" points="0.00903614458 49.9999394 0.00903614458 0.0670180723 49.9328026 0.0670180723 49.9328026 49.9999394 0.00903614458 49.9999394"></polygon>
    </defs>
    <g id="Page-1" stroke="none" stroke-width="1" fill="none" fill-rule="evenodd">
        <g id="elife-logo">
            <g id="logo" transform="translate(10.000000, 10.000000)">
                <path d="M30.9215361,35.999247 C30.6451807,34.0832831 30.160241,32.197741 29.5340361,30.3503012 C29.0990964,29.0746988 28.6271084,27.8058735 28.1251506,26.5414157 C27.8995482,26.775 27.6789157,27.0125 27.4673193,27.2581325 C26.622741,28.2061747 25.9060241,29.2498494 25.3067771,30.3614458 C25.9694277,32.2375 26.4349398,34.1774096 26.6975904,36.1319277 C27.2167169,39.8674699 27.0902108,43.6230422 26.6427711,47.2996988 C27.6826807,47.2228916 28.7052711,47.0739458 29.7061747,46.8570783 C30.3441265,45.2216867 30.7751506,43.5141566 30.9944277,41.7888554 C31.2355422,39.8629518 31.1962349,37.9143072 30.9215361,35.999247" id="Fill-1" fill="#2492C5"></path>
                <path d="M35.3406627,43.1908133 C35.6262048,42.4301205 35.8826807,41.660241 36.0959337,40.8813253 C36.5263554,39.3254518 36.7871988,37.7329819 36.8171687,36.1445783 C36.8493976,34.5548193 36.6402108,32.9801205 36.2673193,31.4266566 C35.8993976,29.8695783 35.3445783,28.3364458 34.9048193,26.7093373 C34.4960843,25.2329819 34.1668675,23.6584337 34.1525602,22.0451807 C33.2233434,22.5817771 32.3159639,23.1426205 31.4539157,23.7573795 C30.7688253,24.2287651 30.1091867,24.7313253 29.4826807,25.2662651 C30.0686747,26.7713855 30.6371988,28.2944277 31.0855422,29.8659639 C31.6447289,31.8105422 32.0856928,33.8096386 32.2626506,35.8451807 C32.4462349,37.8777108 32.378012,39.9394578 32.0182229,41.9451807 C31.7298193,43.5615964 31.2504518,45.1335843 30.6256024,46.6375 C31.9728916,46.284488 33.2745482,45.8087349 34.5176205,45.2192771 C34.6259036,44.913253 34.7661145,44.6209337 34.8873494,44.3243976 C35.0462349,43.9490964 35.1959337,43.5709337 35.3406627,43.1908133" id="Fill-2" fill="#1D5695"></path>
                <path d="M45.8858434,22.0793675 C45.634488,22.9783133 45.3206325,23.840512 45.0317771,24.6896084 C44.7481928,25.5409639 44.465512,26.3698795 44.2356928,27.2021084 C43.7820783,28.8646084 43.5334337,30.5462349 43.5393072,32.2878012 C43.539759,33.1566265 43.5948795,34.0375 43.7224398,34.9149096 C43.785994,35.3539157 43.8635542,35.7921687 43.9533133,36.2295181 C43.9814759,36.3671687 44.0125,36.5027108 44.0427711,36.6384036 C45.5259036,34.197741 46.5646084,31.4338855 47.0266566,28.4414157 C47.5185241,25.2552711 47.3183735,22.0701807 46.4792169,19.0543675 C46.3861446,20.0829819 46.1667169,21.1046687 45.8858434,22.0793675" id="Fill-3" fill="#632350"></path>
                <path d="M16.0564759,9.62018072 C16.1751506,11.5066265 16.5240964,13.3628012 17.1408133,15.1156627 C17.6465361,16.6365964 18.3813253,18.0486446 19.213253,19.4331325 C19.3712349,19.1771084 19.5254518,18.9188253 19.6891566,18.6662651 C20.2740964,17.7805723 20.902259,16.9237952 21.5587349,16.089759 C22.2182229,15.2582831 22.9019578,14.4445783 23.6347892,13.6756024 C23.6593373,13.65 23.6853916,13.6262048 23.7100904,13.6006024 C23.698494,13.5254518 23.6847892,13.4513554 23.6740964,13.3760542 C23.3837349,11.3393072 23.4317771,9.20918675 23.9835843,7.20286145 C24.4216867,5.58509036 25.1813253,4.07138554 26.136747,2.73268072 C22.6186747,2.54126506 19.2266566,3.18810241 16.1629518,4.50240964 C16.102259,5.2628012 16.0391566,6.01716867 16.0195783,6.77560241 C15.9885542,7.72695783 15.9953313,8.67695783 16.0564759,9.62018072" id="Fill-4" fill="#2492C5"></path>
                <path d="M25.0778614,7.46701807 C24.7402108,9.06731928 24.7533133,10.7143072 24.9993976,12.3353916 C25.3084337,12.0456325 25.6188253,11.7569277 25.9384036,11.478012 C28.8888554,8.90376506 32.3174699,6.82048193 36.0481928,5.64563253 C33.7046687,4.3061747 31.1143072,3.38915663 28.3665663,2.96490964 C27.989759,2.90677711 27.6067771,2.85722892 27.2287651,2.81837349 C27.1745482,2.8128012 27.1209337,2.81084337 27.0673193,2.80587349 C26.6614458,3.43810241 26.2870482,4.08012048 25.9792169,4.75496988 C25.575,5.62635542 25.2715361,6.53704819 25.0778614,7.46701807" id="Fill-5" fill="#1D5695"></path>
                <path d="M19.0218373,41.9215361 C18.5055723,40.2295181 17.6753012,38.6509036 16.7248494,37.1325301 C16.2093373,36.3001506 15.6513554,35.4853916 15.0808735,34.6701807 C14.7828313,36.3246988 14.6018072,38.0028614 14.5552711,39.6878012 C14.5266566,40.7090361 14.5468373,41.7325301 14.6176205,42.7537651 C14.6531627,43.2643072 14.700753,43.774247 14.761747,44.2828313 C14.7881024,44.4981928 14.8165663,44.7192771 14.838253,44.9420181 C16.3962349,45.7317771 18.0524096,46.3393072 19.7825301,46.7487952 C19.7691265,45.9923193 19.7195783,45.247741 19.6153614,44.5087349 C19.4918675,43.6266566 19.2748494,42.7662651 19.0218373,41.9215361" id="Fill-6" fill="#C22252"></path>
                <path d="M36.964759,6.19939759 C35.114759,6.8560241 33.3528614,7.71792169 31.7135542,8.78418675 C30.0028614,9.88644578 28.428012,11.1861446 26.9646084,12.5938253 C26.4189759,13.1200301 25.8975904,13.6706325 25.388253,14.2313253 C25.214759,14.4221386 25.0376506,14.609488 24.8685241,14.8034639 C24.6156627,15.0917169 24.3682229,15.384488 24.1212349,15.6775602 C23.7138554,16.160994 23.3134036,16.6495482 22.9317771,17.1533133 C22.3152108,17.960241 21.7356928,18.7948795 21.1805723,19.6450301 C20.8625,20.1233434 20.5573795,20.6108434 20.2605422,21.1027108 C21.0850904,22.3774096 21.9480422,23.6557229 22.746988,25.0025602 C23.3728916,26.064759 23.9599398,27.1649096 24.474247,28.3006024 C24.9683735,27.5194277 25.5207831,26.775753 26.1326807,26.085241 C26.5381024,25.6302711 26.9664157,25.1990964 27.4096386,24.7858434 C27.863253,24.3629518 28.3332831,23.9597892 28.8188253,23.5786145 C29.3686747,23.1471386 29.9353916,22.7408133 30.514759,22.360241 C31.7331325,21.5826807 32.9948795,20.9036145 34.2710843,20.2798193 C34.4534639,18.963253 34.8277108,17.6802711 35.3802711,16.5037651 C36.0878012,14.927259 37.0262048,13.5021084 38.0396084,12.164759 C38.5442771,11.4935241 39.0725904,10.8445783 39.6150602,10.2114458 C39.9399096,9.8373494 40.2673193,9.46400602 40.6045181,9.10180723 C39.490512,8.00286145 38.2707831,7.03268072 36.964759,6.19939759" id="Fill-7" fill="#C22252"></path>
                <path d="M44.6307229,21.6335843 C46.1891566,18.2802711 45.3195783,15.8439759 45.0694277,15.328012 C44.9540663,15.0903614 44.839006,14.853012 44.7150602,14.6192771 C44.2069277,13.6599398 43.6262048,12.7305723 42.9730422,11.8387048 C42.4115964,11.071988 41.8036145,10.3527108 41.1612952,9.67274096 C40.8853916,10.0412651 40.6097892,10.4082831 40.3430723,10.7832831 C39.8689759,11.448494 39.410994,12.1222892 38.9853916,12.8129518 C38.1368976,14.1950301 37.4013554,15.6332831 36.8501506,17.1082831 C36.5816265,17.848494 36.3665663,18.5983434 36.1965361,19.35 C36.1942771,19.3614458 36.1924699,19.372741 36.1900602,19.3841867 C36.072741,19.9326807 35.9944277,20.4861446 35.9573795,21.0414157 C35.9441265,21.2381024 35.9358434,21.435241 35.9331325,21.6322289 C35.8808735,23.1629518 36.1496988,24.7066265 36.559488,26.2671687 C36.9745482,27.8251506 37.4509036,29.4308735 37.7736446,31.1009036 C38.1042169,32.7671687 38.2406627,34.5010542 38.1037651,36.2067771 C37.9746988,37.913253 37.6,39.5826807 37.0606928,41.176506 C36.7926205,41.9748494 36.4825301,42.7552711 36.1445783,43.5204819 C35.9740964,43.9021084 35.7989458,44.2813253 35.614759,44.6557229 C35.6135542,44.6581325 35.6120482,44.6606928 35.610994,44.663253 C38.7542169,42.9554217 41.4644578,40.5087349 43.4804217,37.5170181 C43.4114458,37.3912651 43.3578313,37.2593373 43.3064759,37.1262048 C43.2254518,36.9146084 43.1445783,36.6918675 43.0688253,36.4753012 C42.915512,36.0387048 42.7739458,35.5965361 42.6456325,35.1481928 C42.3906627,34.252259 42.1835843,33.3326807 42.0628012,32.3914157 C41.8173193,30.5121988 41.9783133,28.5355422 42.5379518,26.7179217 C43.0670181,24.885241 43.888253,23.2307229 44.6307229,21.6335843" id="Fill-8" fill="#28346B"></path>
                <path d="M25.8923193,44.8899096 C25.886747,43.9322289 25.8618976,42.9768072 25.8060241,42.025 C25.7128012,40.1209337 25.5150602,38.2302711 25.1840361,36.3730422 C24.949247,35.1081325 24.6546687,33.8584337 24.2783133,32.6375 C24.1031627,32.0694277 23.9123494,31.5069277 23.698494,30.953012 C23.6078313,30.7131024 23.5054217,30.478012 23.4078313,30.2409639 C22.7945783,28.7503012 22.0605422,27.3099398 21.2146084,25.9144578 C20.6021084,24.8822289 19.9408133,23.8623494 19.2849398,22.8221386 C18.9292169,22.2579819 18.5759036,21.6879518 18.2325301,21.1040663 C18.2123494,21.0692771 18.1906627,21.035241 18.1698795,21.0003012 C17.1826807,19.3024096 16.3180723,17.4736446 15.7688253,15.5474398 C15.221988,13.6191265 14.9924699,11.6254518 14.9787651,9.65843373 C14.9700301,8.67364458 15.0179217,7.69307229 15.1040663,6.71927711 C15.1620482,6.1064759 15.2292169,5.49412651 15.3159639,4.88659639 C14.3189759,5.36475904 13.3608434,5.91445783 12.4483434,6.53192771 C11.8162651,8.16972892 11.2206325,9.81581325 10.7855422,11.5025602 C10.3277108,13.2546687 10.0118976,15.0378012 9.92168675,16.8216867 C9.83057229,18.6039157 9.96054217,20.3832831 10.3575301,22.0981928 C10.5540663,22.9564759 10.8236446,23.7948795 11.1394578,24.6170181 C11.4487952,25.4417169 11.8176205,26.2466867 12.2317771,27.0335843 C12.889759,28.2923193 13.6712349,29.4962349 14.4796687,30.7024096 C14.6837349,31.0073795 14.8894578,31.3126506 15.0957831,31.6186747 C15.2584337,31.8558735 15.421988,32.0948795 15.5856928,32.3332831 C16.4623494,33.6125 17.3406627,34.9152108 18.1302711,36.2972892 C19.0603916,37.9371988 19.8338855,39.7106928 20.285994,41.5751506 C20.5209337,42.5045181 20.6322289,43.4620482 20.6769578,44.4121988 C20.715512,45.2540663 20.6792169,46.1 20.5751506,46.9253012 C20.8986446,46.9896084 21.2231928,47.0495482 21.5509036,47.1003012 C21.8545181,47.1472892 22.1614458,47.1835843 22.4667169,47.2180723 C22.5409639,47.226506 22.615512,47.239006 22.6894578,47.246988 C22.8736446,47.2658133 23.0567771,47.275753 23.2403614,47.2902108 C24.1236446,47.3591867 25,47.3801205 25.8658133,47.346988 C25.8807229,46.5259036 25.8923193,45.7069277 25.8923193,44.8899096" id="Fill-9" fill="#5D9742"></path>
                <g id="Group-15">
                    <mask id="mask-2" fill="white">
                        <use xlink:href="#path-1"></use>
                    </mask>
                    <g id="Clip-13"></g>
                    <path d="M9.24668675,38.5876506 C9.05075301,37.4721386 8.73072289,36.385241 8.32680723,35.3316265 C7.5189759,33.2209337 6.39683735,31.2385542 5.28900602,29.186747 C4.73855422,28.1591867 4.20451807,27.1025602 3.76385542,25.990512 C3.35210843,24.9533133 3.01430723,23.876506 2.74954819,22.7856928 C2.0314759,29.8878012 4.72213855,36.5379518 9.5003012,41.124247 C9.49171687,40.8426205 9.47876506,40.5603916 9.45737952,40.2760542 C9.41460843,39.7087349 9.34427711,39.1451807 9.24668675,38.5876506" id="Fill-12" fill="#5D3920" mask="url(#mask-2)"></path>
                    <path d="M27.525,0.199698795 C13.8322289,-1.21099398 1.5435241,8.78162651 0.132831325,22.4751506 C-1.27786145,36.1683735 8.71521084,48.4564759 22.4082831,49.8671687 C36.1018072,51.2778614 48.3894578,41.2853916 49.8,27.5920181 C51.2108434,13.898494 41.2188253,1.61069277 27.525,0.199698795 Z M27.4009036,1.40466867 C40.4301205,2.74713855 49.9375,14.4388554 48.5951807,27.4677711 C47.2528614,40.4968373 35.5612952,50.0043675 22.5323795,48.6618976 C9.50331325,47.3195783 -0.00421686747,35.6281627 1.33795181,22.599247 C2.68027108,9.57018072 14.3721386,0.0625 27.4009036,1.40466867 L27.4009036,1.40466867 Z" id="Fill-14" fill="#8A8D8C" mask="url(#mask-2)"></path>
                </g>
                <path d="M64.4438253,27.5689759 C64.4201807,25.8168675 63.2686747,24.7156627 61.3875,24.7156627 C59.6137048,24.7156627 58.5134036,25.8420181 58.2868976,27.5689759 L64.4438253,27.5689759 Z M58.2868976,29.8216867 C58.4878012,31.5990964 59.8381024,32.6753012 61.514759,32.6753012 C63.0174699,32.6753012 63.9933735,31.9737952 64.7441265,31.047741 L66.8972892,32.6753012 C65.4957831,34.4018072 63.7209337,35.078012 61.8177711,35.078012 C58.1884036,35.078012 55.2840361,32.5496988 55.2840361,28.7709337 C55.2840361,24.9909639 58.1884036,22.4635542 61.8177711,22.4635542 C65.1712349,22.4635542 67.4472892,24.8165663 67.4472892,28.9959337 L67.4472892,29.8216867 L58.2868976,29.8216867 L58.2868976,29.8216867 Z" id="Fill-16" fill="#8A8D8C"></path>
                <polyline id="Fill-17" fill="#676866" points="70 17 73 17 73 32 81 32 81 35 70 35 70 17"></polyline>
                <polygon id="Fill-18" fill="#676866" points="83 35 86 35 86 17 83 17"></polygon>
                <polyline id="Fill-19" fill="#676866" points="90 17 101 17 101 20 93 20 93 25 101 25 101 28 93 28 93 35 90 35 90 17"></polyline>
                <polyline id="Fill-20" fill="#676866" points="104 17 116 17 116 20 107 20 107 24 115 24 115 27 107 27 107 32 116 32 116 35 104 35 104 17"></polyline>
                <path d="M13.9634036,44.448494 C13.8746988,43.9299699 13.7893072,43.3605422 13.7269578,42.8376506 C13.6016566,41.7920181 13.5283133,40.7393072 13.5048193,39.6847892 C13.4582831,37.5748494 13.6120482,35.4585843 13.9463855,33.3691265 C13.9599398,33.284488 13.9756024,33.2001506 13.9896084,33.1152108 C13.8740964,32.9506024 13.7582831,32.7870482 13.6433735,32.6210843 C12.575753,31.110994 11.553012,29.527259 10.6884036,27.8314759 C10.2569277,26.9840361 9.8686747,26.1079819 9.54337349,25.2051205 C9.22379518,24.3004518 8.97680723,23.3676205 8.79879518,22.4239458 C8.44141566,20.5355422 8.38463855,18.6021084 8.58614458,16.7176205 C8.92996988,13.4631024 9.92635542,10.3737952 11.2025602,7.44126506 C6.08403614,11.1260542 2.2810241,19.1707831 3.58012048,22.278012 C4.02003012,23.3301205 4.55316265,24.3391566 5.13087349,25.3278614 C5.70978916,26.3165663 6.29487952,27.3103916 6.85828313,28.3349398 C7.97981928,30.3793675 9.0621988,32.5441265 9.69849398,34.884488 C10.0185241,36.0503012 10.2326807,37.246988 10.3346386,38.447741 C10.3843373,39.0483434 10.4045181,39.6503012 10.3953313,40.2498494 C10.3909639,40.5483434 10.3777108,40.8498494 10.3590361,41.151506 L10.323494,41.5978916 C10.314006,41.6784639 10.3013554,41.7587349 10.2856928,41.839006 C11.4144578,42.8239458 12.6439759,43.701506 13.963253,44.448494 C13.9620482,44.4421687 13.9611446,44.435994 13.9634036,44.448494" id="Fill-21" fill="#165B31"></path>
            </g>
        </g>
    </g>
</svg>