<svg id="Layer_1" data-name="Layer 1" xmlns="http://www.w3.org/2000/svg" viewBox="0 0 150 150"><defs><style>.cls-1{fill:#1b9cd8;}.cls-2{fill:#1658a3;}.cls-3{fill:#771f5a;}.cls-4{fill:#d30f51;}.cls-5{fill:#293278;}.cls-6{fill:#629c31;}.cls-7{fill:#09632e;}.cls-8{fill:#774114;}.cls-9{fill:#9b9a9c;}</style></defs><title>elife-logo-symbol</title><path class="cls-1" d="M107.89,122.94a95.38,95.38,0,0,0-4.17-17q-2-5.75-4.23-11.44c-0.68.7-1.34,1.42-2,2.15A48.74,48.74,0,0,0,91,106a86.86,86.86,0,0,1,4.18,17.33A129.71,129.71,0,0,1,95,156.89a66.56,66.56,0,0,0,9.2-1.33,64.25,64.25,0,0,0,3.87-15.23A65.36,65.36,0,0,0,107.89,122.94Z" transform="translate(-15 -15)"/><path class="cls-2" d="M121.16,144.55c0.86-2.29,1.63-4.6,2.27-6.94a57.58,57.58,0,0,0,2.17-14.23,55.8,55.8,0,0,0-1.65-14.17c-1.11-4.68-2.77-9.28-4.09-14.17a54.59,54.59,0,0,1-2.26-14c-2.79,1.61-5.52,3.3-8.11,5.14a71.69,71.69,0,0,0-5.92,4.53c1.76,4.52,3.47,9.1,4.82,13.82a94.92,94.92,0,0,1,3.54,18,68.9,68.9,0,0,1-.73,18.32A67.85,67.85,0,0,1,107,154.9a66.77,66.77,0,0,0,11.69-4.26c0.33-.92.75-1.8,1.11-2.69C120.28,146.82,120.73,145.69,121.16,144.55Z" transform="translate(-15 -15)"/><path class="cls-3" d="M152.84,81.13c-0.76,2.7-1.7,5.29-2.57,7.84s-1.7,5-2.39,7.55a56.88,56.88,0,0,0-2.09,15.28,55.05,55.05,0,0,0,.55,7.89q0.29,2,.69,3.95c0.08,0.41.18,0.82,0.27,1.23A67.3,67.3,0,0,0,154.62,72,49,49,0,0,1,152.84,81.13Z" transform="translate(-15 -15)"/><path class="cls-1" d="M63.23,43.7a61.35,61.35,0,0,0,3.26,16.51,65.23,65.23,0,0,0,6.23,13c0.47-.77.94-1.55,1.43-2.3,1.76-2.66,3.64-5.23,5.62-7.74s4-4.94,6.24-7.25l0.23-.23c0-.23-0.08-0.45-0.11-0.67A45.87,45.87,0,0,1,87,36.44,42.32,42.32,0,0,1,93.52,23a66.65,66.65,0,0,0-30,5.32c-0.18,2.28-.37,4.55-0.43,6.83C63,38,63.05,40.86,63.23,43.7Z" transform="translate(-15 -15)"/><path class="cls-2" d="M90.33,37.23a41,41,0,0,0-.24,14.62C91,51,92,50.12,92.92,49.28a86.06,86.06,0,0,1,30.37-17.52,67,67,0,0,0-23.08-8.05c-1.13-.17-2.28-0.32-3.42-0.44l-0.49,0A47,47,0,0,0,93,29.08,37.59,37.59,0,0,0,90.33,37.23Z" transform="translate(-15 -15)"/><path class="cls-4" d="M72.14,140.73a60.8,60.8,0,0,0-6.9-14.39c-1.55-2.5-3.22-4.95-4.94-7.4A100.77,100.77,0,0,0,58.72,134q-0.13,4.6.19,9.21,0.16,2.3.43,4.59c0.08,0.65.16,1.31,0.23,2a66.9,66.9,0,0,0,14.85,5.43,55.14,55.14,0,0,0-.5-6.73A52.51,52.51,0,0,0,72.14,140.73Z" transform="translate(-15 -15)"/><path class="cls-4" d="M126,33.42a74.72,74.72,0,0,0-15.78,7.76A94.69,94.69,0,0,0,96,52.63c-1.64,1.58-3.21,3.23-4.74,4.92-0.52.57-1.05,1.14-1.56,1.72-0.76.87-1.5,1.75-2.25,2.63-1.22,1.45-2.43,2.92-3.57,4.43-1.85,2.42-3.59,4.93-5.26,7.49-1,1.44-1.87,2.9-2.76,4.38,2.48,3.83,5.07,7.67,7.47,11.72a104.41,104.41,0,0,1,5.19,9.91,51.7,51.7,0,0,1,5-6.65c1.22-1.37,2.5-2.66,3.84-3.9s2.77-2.48,4.23-3.63q2.48-1.94,5.09-3.66A113.72,113.72,0,0,1,118,75.72a39.53,39.53,0,0,1,3.33-11.34,67.45,67.45,0,0,1,8-13c1.52-2,3.1-4,4.73-5.87,1-1.12,2-2.25,3-3.33A66.45,66.45,0,0,0,126,33.42Z" transform="translate(-15 -15)"/><path class="cls-5" d="M149.07,79.79c4.68-10.07,2.07-17.39,1.32-18.94-0.35-.71-0.69-1.43-1.06-2.13a67,67,0,0,0-10.68-14.86c-0.83,1.11-1.66,2.21-2.46,3.34-1.42,2-2.8,4-4.08,6.1a75.07,75.07,0,0,0-6.41,12.9,56,56,0,0,0-2,6.73l0,0.1a34.92,34.92,0,0,0-.7,5q-0.06.89-.07,1.77a48.51,48.51,0,0,0,1.88,13.92c1.25,4.68,2.68,9.5,3.65,14.52a56.15,56.15,0,0,1,1,15.34,61.06,61.06,0,0,1-3.13,14.93c-0.81,2.4-1.74,4.74-2.75,7-0.51,1.15-1,2.29-1.59,3.41v0a67.2,67.2,0,0,0,23.64-21.47,9.66,9.66,0,0,1-.52-1.17c-0.24-.64-0.49-1.3-0.71-2q-0.69-2-1.27-4a56.58,56.58,0,0,1-1.75-8.28,40.65,40.65,0,0,1,1.43-17C144.37,89.55,146.84,84.58,149.07,79.79Z" transform="translate(-15 -15)"/><path class="cls-6" d="M92.78,149.65c0-2.88-.09-5.75-0.26-8.61a134.16,134.16,0,0,0-1.87-17,100.18,100.18,0,0,0-2.72-11.22c-0.53-1.71-1.1-3.4-1.74-5.06-0.27-.72-0.58-1.43-0.87-2.14a94.14,94.14,0,0,0-6.59-13c-1.84-3.1-3.83-6.16-5.8-9.29C71.86,81.66,70.8,80,69.77,78.2l-0.19-.31A72.4,72.4,0,0,1,62.37,61.5,66.55,66.55,0,0,1,60,43.81c0-3,.12-5.9.38-8.83,0.17-1.84.38-3.68,0.64-5.51a67.28,67.28,0,0,0-8.61,4.94,136,136,0,0,0-5,14.93,79.24,79.24,0,0,0-2.6,16,57.33,57.33,0,0,0,1.31,15.85,56,56,0,0,0,2.35,7.57A63.44,63.44,0,0,0,51.74,96a119.15,119.15,0,0,0,6.75,11l1.85,2.75,1.47,2.15c2.63,3.84,5.27,7.76,7.64,11.91a62,62,0,0,1,6.48,15.85,43.06,43.06,0,0,1,1.17,8.52,44.34,44.34,0,0,1-.31,7.55c1,0.19,1.95.37,2.93,0.53s1.83,0.25,2.75.35l0.67,0.09c0.55,0.06,1.1.09,1.66,0.13a68,68,0,0,0,7.89.17C92.75,154.56,92.78,152.1,92.78,149.65Z" transform="translate(-15 -15)"/><path class="cls-7" d="M56.95,148.32h0S56.94,148.3,56.95,148.32Z" transform="translate(-15 -15)"/><path class="cls-7" d="M56.95,148.32h0S57,148.36,56.95,148.32Z" transform="translate(-15 -15)"/><path class="cls-8" d="M42.78,130.72A53,53,0,0,0,40,120.94c-2.43-6.34-5.8-12.3-9.13-18.46a92.85,92.85,0,0,1-4.58-9.6,72.47,72.47,0,0,1-3-9.63,66.82,66.82,0,0,0,20.28,55.09c0-.85-0.07-1.69-0.13-2.55Q43.22,133.23,42.78,130.72Z" transform="translate(-15 -15)"/><path class="cls-9" d="M97.31,19A71.36,71.36,0,1,1,19,82.69,71.44,71.44,0,0,1,97.31,19m0.37-3.62A75,75,0,1,0,164.6,97.69,75.08,75.08,0,0,0,97.69,15.4h0Z" transform="translate(-15 -15)"/><path class="cls-7" d="M56.95,148.32c-0.27-1.56-.52-3.27-0.71-4.84q-0.56-4.71-.67-9.47a105.46,105.46,0,0,1,1.33-19c0-.25.09-0.51,0.13-0.76l-1-1.48a117.53,117.53,0,0,1-8.88-14.39,68.91,68.91,0,0,1-3.44-7.89,56.62,56.62,0,0,1-2.24-8.36A58.8,58.8,0,0,1,40.79,65a95,95,0,0,1,7.86-27.87c-15.38,11.07-26.8,35.24-22.9,44.57a77.41,77.41,0,0,0,4.66,9.16c1.74,3,3.5,6,5.19,9,3.37,6.14,6.62,12.64,8.53,19.67A59.52,59.52,0,0,1,46,130.3c0.15,1.8.21,3.61,0.18,5.41,0,0.9-.05,1.8-0.11,2.71L46,139.76q0,0.36-.11.72a67.09,67.09,0,0,0,11,7.84S56.94,148.29,56.95,148.32Z" transform="translate(-15 -15)"/></svg>